<svg width="100%" height="100%" viewBox="0 0 552 500" fill="none" xmlns="http://www.w3.org/2000/svg">
<g clip-path="url(#clip0)">
<path opacity="0.1" d="M31.7779 256.91C50.5196 285.037 43.2385 326.118 31.3311 359.029C27.3409 370.048 22.8355 381.701 24.4968 393.515C26.5523 407.959 37.4767 418.526 48.9478 424.123C69.8554 434.33 94.8794 431.898 114.094 417.788C130.696 405.595 142.588 385.771 159.474 374.137C187.736 354.667 223.706 362.019 254.392 375.434C276.104 384.921 299.84 397.262 321.41 387.347C336.587 380.367 347.08 363.384 352.8 345.378C355.56 336.691 357.563 327.279 362.836 320.385C365.99 316.29 370.059 313.38 374.249 310.929C412.505 288.542 460.819 300.53 497.976 275.705C523.068 258.952 539.134 227.307 546.247 194.323C553.36 161.338 552.556 126.753 550.726 92.7876C549.443 68.6447 547.141 42.8763 534.072 24.2433C520.245 4.53694 496.52 -2.79711 475.076 0.950577C453.632 4.69827 434.191 18.051 417.09 33.7739C395.719 53.4306 375.895 77.9023 349.656 85.894C331.782 91.317 312.988 88.376 294.556 87.3211C263.744 85.6024 232.921 89.4246 202.278 93.6004C172.943 97.6025 143.398 102.008 115.451 113.27C95.6785 121.212 79.8335 135.681 61.1601 145.764C48.9898 152.353 35.7155 154.171 24.1866 162.567C9.99233 172.904 -3.02435 190.885 0.613591 211.926C4.07279 231.948 21.8314 241.982 31.7779 256.91Z" fill="#004AF6"/>
<path d="M99.7701 379.863C99.7701 379.863 98.0352 319.205 70.2302 284.93C58.5593 270.547 50.8944 252.28 48.8651 232.512C47.9165 223.13 47.6983 213.665 48.2133 204.237" stroke="#535461" stroke-width="2" stroke-miterlimit="10"/>
<path d="M30.7964 182.532C32.6994 189.308 48.6076 204.869 48.6076 204.869C48.6076 204.869 53.4809 181.161 51.5778 174.392C50.6639 171.139 48.6926 168.448 46.0977 166.911C43.5028 165.374 40.4968 165.116 37.741 166.195C34.9852 167.274 32.7054 169.6 31.403 172.663C30.1006 175.726 29.8824 179.274 30.7964 182.526V182.532Z" fill="#004AF6"/>
<path d="M24.1829 226.766C28.9143 231.234 49.4172 234.1 49.4172 234.1C49.4172 234.1 42.5829 211.074 37.8515 206.613C35.5753 204.639 32.7405 203.779 29.9398 204.214C27.1391 204.65 24.5895 206.346 22.8241 208.949C21.0588 211.552 20.2144 214.86 20.4677 218.18C20.7209 221.501 22.0521 224.577 24.1829 226.766Z" fill="#004AF6"/>
<path d="M42.9246 290.582C48.9072 291.625 67.8487 281.896 67.8487 281.896C67.8487 281.896 52.1088 266.086 46.1262 265.044C43.254 264.542 40.3307 265.409 37.9995 267.451C35.6684 269.494 34.1202 272.546 33.6957 275.936C33.2711 279.326 34.0049 282.776 35.7357 285.528C37.4664 288.279 40.0524 290.106 42.9246 290.607V290.582Z" fill="#004AF6"/>
<path d="M66.3294 335.095C72.0754 337.317 92.142 331.484 92.142 331.484C92.142 331.484 78.8887 312.765 73.1426 310.543C70.3841 309.474 67.3784 309.741 64.787 311.287C62.1955 312.833 60.2305 315.53 59.3242 318.786C58.418 322.042 58.6446 325.589 59.9544 328.648C61.2642 331.707 63.5498 334.026 66.3084 335.095H66.3294Z" fill="#004AF6"/>
<path d="M71.5865 226.872C68.795 233.201 50.9943 245.598 50.9943 245.598C50.9943 245.598 49.3751 221.281 52.1666 214.946C52.8301 213.441 53.7382 212.105 54.8391 211.014C55.9401 209.924 57.2122 209.099 58.583 208.589C59.9538 208.078 61.3963 207.892 62.8283 208.039C64.2603 208.187 65.6536 208.666 66.9287 209.449C68.2038 210.232 69.3358 211.304 70.26 212.603C71.1841 213.902 71.8824 215.404 72.3149 217.022C72.7475 218.64 72.9058 220.342 72.7808 222.032C72.6558 223.722 72.25 225.367 71.5865 226.872Z" fill="#004AF6"/>
<path d="M98.4032 279.339C94.1344 284.396 74.0101 289.931 74.0101 289.931C74.0101 289.931 78.6311 266.154 82.8946 261.097C83.9091 259.895 85.1143 258.941 86.4413 258.289C87.7682 257.637 89.1911 257.3 90.6285 257.296C92.0659 257.293 93.4898 257.624 94.8188 258.271C96.1478 258.917 97.356 259.866 98.3743 261.063C99.3926 262.261 100.201 263.683 100.754 265.249C101.306 266.815 101.592 268.495 101.595 270.191C101.597 271.888 101.317 273.568 100.769 275.137C100.222 276.705 99.4177 278.131 98.4032 279.333V279.339Z" fill="#004AF6"/>
<path d="M118.538 334.556C115.058 340.388 96.0112 349.863 96.0112 349.863C96.0112 349.863 97.1573 325.509 100.643 319.67C101.449 318.223 102.494 316.982 103.715 316.02C104.936 315.059 106.309 314.398 107.751 314.075C109.193 313.753 110.675 313.776 112.11 314.143C113.544 314.511 114.901 315.215 116.1 316.214C117.299 317.213 118.316 318.486 119.09 319.958C119.863 321.431 120.378 323.071 120.604 324.783C120.829 326.495 120.761 328.243 120.402 329.923C120.044 331.603 119.403 333.18 118.517 334.562L118.538 334.556Z" fill="#004AF6"/>
<path d="M344.112 338.675C344.112 338.675 335.763 335.337 331.747 344.018C330.687 346.371 330.148 349.002 330.179 351.667C330.21 354.332 330.811 356.945 331.926 359.263C334.554 364.891 340.001 372.2 350.326 371.548C359.063 370.996 361.944 363.129 362.743 355.807C363.045 353.062 362.745 350.271 361.872 347.702C360.999 345.133 359.581 342.871 357.755 341.134C355.929 339.397 353.756 338.242 351.443 337.78C349.131 337.318 346.757 337.564 344.548 338.496L344.112 338.675Z" fill="#004AF6"/>
<path opacity="0.1" d="M333.692 360.045C332.577 357.727 331.977 355.114 331.946 352.449C331.914 349.784 332.453 347.153 333.513 344.8C337.53 336.113 345.878 339.457 345.878 339.457L346.304 339.277C349.487 337.918 352.985 338.011 356.114 339.538C354.387 338.325 352.455 337.579 350.455 337.354C348.455 337.128 346.437 337.429 344.548 338.235L344.122 338.415C344.122 338.415 335.774 335.077 331.757 343.757C330.698 346.111 330.158 348.742 330.19 351.407C330.221 354.072 330.822 356.684 331.936 359.002C333.676 362.725 336.625 367.137 341.399 369.551C338.141 367.274 335.476 363.986 333.692 360.045Z" fill="white"/>
<path opacity="0.2" d="M339.801 342.851C339.801 342.851 342.897 345.724 350.41 342.851H339.801Z" fill="black"/>
<path d="M339.138 321.979C339.138 321.979 344.443 338.936 344.001 343.373L348.207 342.852C348.207 342.852 341.131 327.96 342.902 321.979H339.138Z" fill="#004AF6"/>
<path opacity="0.2" d="M339.138 321.979C339.138 321.979 344.443 338.936 344.001 343.373L348.207 342.852C348.207 342.852 341.131 327.96 342.902 321.979H339.138Z" fill="black"/>
<path d="M360.792 323.393C360.792 323.393 352.444 318.355 348.701 322.518C344.958 326.682 344.39 337.323 344.39 337.323C344.39 337.323 358.011 339.532 360.792 323.393Z" fill="#004AF6"/>
<path opacity="0.1" d="M360.792 323.393C360.792 323.393 352.444 318.355 348.701 322.518C344.958 326.682 344.39 337.323 344.39 337.323C344.39 337.323 358.011 339.532 360.792 323.393Z" fill="white"/>
<path d="M344.395 337.323C344.395 337.323 346.588 324.969 360.792 323.393" stroke="#004AF6" stroke-miterlimit="10"/>
<path d="M104.423 263.399C104.423 263.399 106.126 230.601 92.6308 210.448C86.9241 202.038 83.6829 191.67 83.394 180.9C83.2924 175.785 83.588 170.67 84.2772 165.618" stroke="#535461" stroke-width="2" stroke-miterlimit="10"/>
<path d="M75.8395 152.861C76.5702 156.627 84.4665 165.984 84.4665 165.984C84.4665 165.984 88.1465 153.5 87.3947 149.74C87.2221 148.844 86.9016 147.996 86.4516 147.246C86.0015 146.496 85.4306 145.858 84.7716 145.368C84.1126 144.878 83.3783 144.547 82.6106 144.392C81.843 144.237 81.057 144.262 80.2976 144.466C79.5381 144.67 78.8202 145.048 78.1846 145.579C77.549 146.11 77.0084 146.784 76.5934 147.562C76.1785 148.34 75.8974 149.206 75.7662 150.112C75.6351 151.018 75.6564 151.946 75.829 152.842L75.8395 152.861Z" fill="#004AF6"/>
<path d="M70.3406 176.303C72.6905 178.996 83.6254 181.788 83.6254 181.788C83.6254 181.788 80.9495 168.962 78.5995 166.276C78.0414 165.636 77.3818 165.132 76.6586 164.793C75.9354 164.453 75.1627 164.286 74.3845 164.299C73.6064 164.312 72.8381 164.506 72.1235 164.87C71.4088 165.233 70.7619 165.76 70.2196 166.418C69.6773 167.077 69.2503 167.856 68.9629 168.709C68.6755 169.563 68.5333 170.475 68.5446 171.393C68.5558 172.312 68.7202 173.218 69.0283 174.062C69.3365 174.905 69.7824 175.669 70.3406 176.309V176.303Z" fill="#004AF6"/>
<path d="M77.6743 211.838C80.8285 212.762 91.4848 208.654 91.4848 208.654C91.4848 208.654 83.6884 199.18 80.5131 198.255C79.7575 198.035 78.9726 197.993 78.2031 198.131C77.4337 198.269 76.6948 198.585 76.0287 199.06C74.6835 200.019 73.7162 201.57 73.3397 203.371C72.9633 205.172 73.2085 207.076 74.0213 208.664C74.8342 210.252 76.1482 211.393 77.6743 211.838Z" fill="#004AF6"/>
<path d="M88.3516 237.24C91.3534 238.785 102.42 236.855 102.42 236.855C102.42 236.855 96.1111 225.96 93.0935 224.446C92.3774 224.056 91.6027 223.84 90.8148 223.809C90.0269 223.777 89.2417 223.932 88.5051 224.264C87.7684 224.595 87.0953 225.097 86.525 225.739C85.9548 226.381 85.4988 227.152 85.184 228.005C84.8692 228.858 84.7017 229.776 84.6915 230.707C84.6812 231.637 84.8284 232.561 85.1244 233.423C85.4204 234.285 85.8592 235.069 86.4151 235.729C86.9711 236.389 87.633 236.911 88.3621 237.265L88.3516 237.24Z" fill="#004AF6"/>
<path d="M95.8955 179.238C94.1186 182.483 83.9828 188.079 83.9828 188.079C83.9828 188.079 84.1669 174.876 85.949 171.631C86.8037 170.074 88.1474 168.982 89.6844 168.594C91.2214 168.207 92.8259 168.556 94.1449 169.564C95.4639 170.573 96.3893 172.159 96.7177 173.973C97.046 175.787 96.7502 177.681 95.8955 179.238Z" fill="#004AF6"/>
<path d="M108.066 209.138C105.548 211.62 94.4551 213.37 94.4551 213.37C94.4551 213.37 97.9774 200.836 100.501 198.367C101.711 197.183 103.27 196.615 104.835 196.788C106.4 196.96 107.843 197.86 108.847 199.288C109.85 200.717 110.331 202.557 110.185 204.404C110.038 206.251 109.276 207.954 108.066 209.138Z" fill="#004AF6"/>
<path d="M116.514 240.119C114.385 243.054 103.708 247.006 103.708 247.006C103.708 247.006 105.385 233.976 107.519 231.016C108.026 230.319 108.644 229.746 109.338 229.331C110.033 228.915 110.789 228.665 111.566 228.595C112.342 228.524 113.122 228.635 113.862 228.921C114.602 229.207 115.287 229.661 115.878 230.259C116.469 230.858 116.954 231.587 117.306 232.407C117.658 233.226 117.87 234.119 117.93 235.035C117.989 235.952 117.895 236.873 117.653 237.746C117.411 238.619 117.026 239.428 116.519 240.125L116.514 240.119Z" fill="#004AF6"/>
<path opacity="0.5" d="M75.8395 152.861C76.5702 156.627 84.4665 165.984 84.4665 165.984C84.4665 165.984 88.1465 153.5 87.3947 149.74C87.2221 148.844 86.9016 147.996 86.4516 147.246C86.0015 146.496 85.4306 145.858 84.7716 145.368C84.1126 144.878 83.3783 144.547 82.6106 144.392C81.843 144.237 81.057 144.262 80.2976 144.466C79.5381 144.67 78.8202 145.048 78.1846 145.579C77.549 146.11 77.0084 146.784 76.5934 147.562C76.1785 148.34 75.8974 149.206 75.7662 150.112C75.6351 151.018 75.6564 151.946 75.829 152.842L75.8395 152.861Z" fill="white"/>
<path opacity="0.5" d="M70.3406 176.303C72.6905 178.996 83.6254 181.788 83.6254 181.788C83.6254 181.788 80.9495 168.962 78.5995 166.276C78.0414 165.636 77.3818 165.132 76.6586 164.793C75.9354 164.453 75.1627 164.286 74.3845 164.299C73.6064 164.312 72.8381 164.506 72.1235 164.87C71.4088 165.233 70.7619 165.76 70.2196 166.418C69.6773 167.077 69.2503 167.856 68.9629 168.709C68.6755 169.563 68.5333 170.475 68.5446 171.393C68.5558 172.312 68.7202 173.218 69.0283 174.062C69.3365 174.905 69.7824 175.669 70.3406 176.309V176.303Z" fill="white"/>
<path opacity="0.5" d="M77.6743 211.838C80.8285 212.762 91.4848 208.654 91.4848 208.654C91.4848 208.654 83.6884 199.18 80.5131 198.255C79.7575 198.035 78.9726 197.993 78.2031 198.131C77.4337 198.269 76.6948 198.585 76.0287 199.06C74.6835 200.019 73.7162 201.57 73.3397 203.371C72.9633 205.172 73.2085 207.076 74.0213 208.664C74.8342 210.252 76.1482 211.393 77.6743 211.838Z" fill="white"/>
<path opacity="0.5" d="M88.3516 237.24C91.3534 238.785 102.42 236.855 102.42 236.855C102.42 236.855 96.1111 225.96 93.0935 224.446C92.3774 224.056 91.6027 223.84 90.8148 223.809C90.0269 223.777 89.2417 223.932 88.5051 224.264C87.7684 224.595 87.0953 225.097 86.525 225.739C85.9548 226.381 85.4988 227.152 85.184 228.005C84.8692 228.858 84.7017 229.776 84.6915 230.707C84.6812 231.637 84.8284 232.561 85.1244 233.423C85.4204 234.285 85.8592 235.069 86.4151 235.729C86.9711 236.389 87.633 236.911 88.3621 237.265L88.3516 237.24Z" fill="white"/>
<path opacity="0.5" d="M95.8955 179.238C94.1186 182.483 83.9828 188.079 83.9828 188.079C83.9828 188.079 84.1669 174.876 85.949 171.631C86.8037 170.074 88.1474 168.982 89.6844 168.594C91.2214 168.207 92.8259 168.556 94.1449 169.564C95.4639 170.573 96.3893 172.159 96.7177 173.973C97.046 175.787 96.7502 177.681 95.8955 179.238Z" fill="white"/>
<path opacity="0.5" d="M108.066 209.138C105.548 211.62 94.4551 213.37 94.4551 213.37C94.4551 213.37 97.9774 200.836 100.501 198.367C101.711 197.183 103.27 196.615 104.835 196.788C106.4 196.96 107.843 197.86 108.847 199.288C109.85 200.717 110.331 202.557 110.185 204.404C110.038 206.251 109.276 207.954 108.066 209.138Z" fill="white"/>
<path opacity="0.5" d="M116.514 240.119C114.385 243.054 103.708 247.006 103.708 247.006C103.708 247.006 105.385 233.976 107.519 231.016C108.026 230.319 108.644 229.746 109.338 229.331C110.033 228.915 110.789 228.665 111.566 228.595C112.342 228.524 113.122 228.635 113.862 228.921C114.602 229.207 115.287 229.661 115.878 230.259C116.469 230.858 116.954 231.587 117.306 232.407C117.658 233.226 117.87 234.119 117.93 235.035C117.989 235.952 117.895 236.873 117.653 237.746C117.411 238.619 117.026 239.428 116.519 240.125L116.514 240.119Z" fill="white"/>
<path d="M265.223 12.6516V23.4169V226.071H530.666V23.4169V12.6516H265.223Z" fill="url(#paint0_linear)"/>
<path d="M527.854 22.331H269.16V222.206H527.854V22.331Z" fill="white"/>
<path d="M527.854 12.8253H269.16V27.5306H527.854V12.8253Z" fill="#EEEEEE"/>
<path d="M279.002 23.5223C280.671 23.5223 282.025 21.925 282.025 19.9546C282.025 17.9842 280.671 16.3868 279.002 16.3868C277.332 16.3868 275.979 17.9842 275.979 19.9546C275.979 21.925 277.332 23.5223 279.002 23.5223Z" fill="#FF5252"/>
<path d="M287.313 23.5223C288.983 23.5223 290.336 21.925 290.336 19.9546C290.336 17.9842 288.983 16.3868 287.313 16.3868C285.644 16.3868 284.291 17.9842 284.291 19.9546C284.291 21.925 285.644 23.5223 287.313 23.5223Z" fill="#FFFF00"/>
<path d="M295.62 23.5223C297.289 23.5223 298.642 21.925 298.642 19.9546C298.642 17.9842 297.289 16.3868 295.62 16.3868C293.95 16.3868 292.597 17.9842 292.597 19.9546C292.597 21.925 293.95 23.5223 295.62 23.5223Z" fill="#69F0AE"/>
<path opacity="0.5" d="M375.476 51.0839H279.075V55.8244H375.476V51.0839Z" fill="#004AF6"/>
<path opacity="0.5" d="M375.476 60.5648H279.075V65.3053H375.476V60.5648Z" fill="#004AF6"/>
<path opacity="0.5" d="M375.476 70.0459H279.075V74.7863H375.476V70.0459Z" fill="#004AF6"/>
<path opacity="0.5" d="M375.47 79.5267H312.301V84.2672H375.47V79.5267Z" fill="#004AF6"/>
<path opacity="0.5" d="M329.833 89.0138H279.075V93.7542H329.833V89.0138Z" fill="#004AF6"/>
<path opacity="0.5" d="M345.531 98.4948H306.46V103.235H345.531V98.4948Z" fill="#004AF6"/>
<path opacity="0.5" d="M501.821 84.2734H388.256V161.417H501.821V84.2734Z" fill="#004AF6"/>
<path d="M515.331 91.595H401.767V168.739H515.331V91.595Z" fill="#EEEEEE"/>
<path d="M465.304 168.72H401.767V154.611C417.291 146.048 441.174 141.239 465.304 168.72Z" fill="#004AF6"/>
<g opacity="0.1">
<path opacity="0.1" d="M514.601 166.722V168.72H435.36V168.292C435.36 168.292 474.352 123.506 514.601 166.722Z" fill="black"/>
</g>
<path d="M515.331 166.722V168.72H436.091V168.292C436.091 168.292 475.083 123.506 515.331 166.722Z" fill="#004AF6"/>
<path d="M414.915 112.282C418.141 112.282 420.755 109.195 420.755 105.388C420.755 101.581 418.141 98.4948 414.915 98.4948C411.689 98.4948 409.074 101.581 409.074 105.388C409.074 109.195 411.689 112.282 414.915 112.282Z" fill="#004AF6"/>
<path d="M464.653 100.164C463.985 100.164 463.238 100.164 462.734 100.213C462.506 100.228 462.281 100.283 462.066 100.375L458.628 101.833C461.404 101.914 464.3 101.889 467.139 101.833L483.089 101.69C484.714 101.69 486.428 101.659 487.784 101.541C488.693 101.467 489.361 101.349 490.197 101.262C493.215 100.946 497.62 101.008 501.553 101.02C505.485 101.032 510.232 100.915 511.615 100.449H503.177C502.267 100.449 501.311 100.449 500.506 100.393C499.565 100.331 498.992 100.207 498.167 100.12C496.8 99.9839 494.918 99.9652 493.162 99.959C483.552 99.9528 474.052 100.226 464.653 100.164Z" fill="#F4F4F4"/>
<path d="M474.121 108.534C473.973 108.534 473.816 108.534 473.705 108.534C473.657 108.539 473.609 108.551 473.563 108.571L472.817 108.888C473.416 108.888 474.047 108.888 474.662 108.888L478.116 108.857C478.468 108.857 478.836 108.857 479.131 108.826L479.656 108.764C480.308 108.695 481.265 108.708 482.117 108.714C482.846 108.743 483.575 108.701 484.299 108.59H482.469C482.269 108.59 482.064 108.59 481.891 108.59C481.717 108.59 481.565 108.547 481.365 108.534C481.071 108.534 480.661 108.503 480.282 108.497C478.211 108.484 476.155 108.534 474.121 108.534Z" fill="#F4F4F4"/>
<path d="M449.654 120.596C449.507 120.596 449.349 120.596 449.239 120.596C449.19 120.601 449.142 120.613 449.097 120.633L448.35 120.95C448.949 120.95 449.58 120.95 450.195 120.95L453.649 120.919C454.002 120.919 454.37 120.919 454.664 120.888L455.19 120.826C455.842 120.757 456.798 120.77 457.65 120.776C458.379 120.805 459.109 120.763 459.832 120.652H458.002C457.803 120.652 457.597 120.652 457.424 120.652C457.25 120.652 457.098 120.608 456.898 120.596C456.604 120.596 456.194 120.565 455.815 120.559C453.749 120.553 451.688 120.608 449.654 120.596Z" fill="#F4F4F4"/>
<path d="M435.912 164.917H433.189C433.189 164.917 432.332 129.475 435.933 118.536H436.622C436.622 118.536 434.198 158.644 435.912 164.917Z" fill="#004AF6"/>
<path d="M434.025 116.718C434.025 116.718 431.795 124.009 432.826 127.266C432.826 127.266 434.371 120.584 436.175 119.572C437.978 118.561 439.855 127.266 439.855 127.266C439.855 127.266 440.906 121.8 438.998 117.339C441.412 119.025 443.374 121.481 444.66 124.425C444.66 124.425 445.001 121.384 440.543 115.117C440.543 115.117 444.491 116.358 447.062 119.169C447.062 119.169 447.919 116.942 442.599 113.293C442.599 113.293 443.288 110.662 447.404 111.878C447.404 111.878 447.404 108.435 440.885 109.043C440.885 109.043 440.885 106.815 445.175 107.219C445.175 107.219 445.175 104.383 440.196 105.394C440.196 105.394 441.248 103.57 441.91 103.167C441.051 103.074 440.194 103.364 439.508 103.98C439.508 103.98 439.681 100.331 437.105 98.9167L436.763 103.98C436.763 103.98 433.877 99.9653 434.534 100.741C434.949 101.962 435.128 103.275 435.06 104.588C435.06 104.588 432.142 101.752 428.541 104.793C428.541 104.793 433.005 105.196 433.688 107.02C433.688 107.02 429.913 106.207 429.057 106.815C429.057 106.815 431.974 108.056 431.801 108.838C431.801 108.838 426.654 108.838 425.965 111.066C425.965 111.066 431.286 111.878 431.627 112.48C431.627 112.48 425.45 117.748 425.108 119.163C425.108 119.163 431.459 114.708 432.468 114.708C433.478 114.708 427.837 121.192 428.179 122.811C428.194 122.805 432.826 116.309 434.025 116.718Z" fill="#004AF6"/>
<path d="M469.784 163.595H471.886C471.886 163.595 472.544 136.518 469.784 128.16H469.258C469.258 128.16 471.093 158.793 469.784 163.595Z" fill="#004AF6"/>
<path d="M471.224 126.764C471.224 126.764 472.927 132.348 472.144 134.83C472.144 134.83 470.966 129.723 469.589 128.948C468.212 128.172 466.771 134.83 466.771 134.83C466.771 134.83 465.983 130.654 467.428 127.248C465.583 128.537 464.084 130.415 463.102 132.665C463.102 132.665 462.839 130.344 466.256 125.548C466.256 125.548 463.238 126.478 461.272 128.65C461.272 128.65 460.615 126.95 464.679 124.164C464.679 124.164 464.153 122.154 460.999 123.078C460.999 123.078 460.999 120.447 465.983 120.913C465.983 120.913 465.983 119.213 462.708 119.523C462.708 119.523 462.708 117.357 466.508 118.133C466.157 117.483 465.714 116.908 465.199 116.433C465.855 116.361 466.51 116.582 467.034 117.053C467.034 117.053 466.903 114.267 468.869 113.188L469.132 117.053C469.132 117.053 471.334 113.988 470.835 114.571C470.521 115.505 470.386 116.51 470.441 117.512C470.441 117.512 472.67 115.347 475.425 117.668C475.425 117.668 472.018 117.978 471.492 119.368C471.492 119.368 474.378 118.747 475.03 119.213C475.03 119.213 472.801 120.143 472.927 120.758C472.927 120.758 476.86 120.758 477.385 122.458C477.385 122.458 473.322 123.078 473.059 123.543C473.059 123.543 477.79 127.564 478.043 128.65C478.043 128.65 473.19 125.244 472.407 125.244C471.624 125.244 475.945 130.207 475.682 131.448C475.682 131.405 472.144 126.454 471.224 126.764Z" fill="#004AF6"/>
<path d="M494.881 158.303H496.18C496.18 158.303 496.584 141.55 494.881 136.356H494.555C494.555 136.356 495.691 155.331 494.881 158.303Z" fill="#004AF6"/>
<path d="M495.749 135.494C495.749 135.494 496.8 138.944 496.316 140.458C496.316 140.458 495.586 137.293 494.739 136.815C493.893 136.338 492.994 140.458 492.994 140.458C492.726 138.88 492.867 137.243 493.399 135.761C492.255 136.56 491.326 137.723 490.718 139.117C490.718 139.117 490.555 137.678 492.668 134.712C491.535 135.084 490.483 135.738 489.582 136.629C489.582 136.629 489.177 135.575 491.685 133.85C491.685 133.85 491.359 132.609 489.414 133.179C489.414 133.179 489.414 131.548 492.5 131.839C492.5 131.839 492.5 130.784 490.47 130.977C490.47 130.977 490.47 129.637 492.826 130.114C492.608 129.711 492.335 129.354 492.016 129.059C492.422 129.016 492.827 129.153 493.152 129.444C493.132 128.96 493.228 128.478 493.429 128.055C493.63 127.631 493.927 127.283 494.287 127.049L494.45 129.444C494.45 129.444 495.817 127.546 495.502 127.912C495.308 128.489 495.225 129.11 495.26 129.73C495.711 129.341 496.258 129.139 496.816 129.156C497.374 129.173 497.912 129.407 498.346 129.823C498.346 129.823 496.243 130.015 495.912 130.877C495.912 130.877 497.699 130.493 498.104 130.784C498.104 130.784 496.721 131.361 496.805 131.74C496.805 131.74 499.239 131.74 499.565 132.795C499.565 132.795 497.047 133.179 496.884 133.465C496.884 133.465 499.807 135.947 499.97 136.629C499.97 136.629 496.968 134.52 496.479 134.52C495.99 134.52 498.672 137.585 498.509 138.354C498.535 138.367 496.343 135.302 495.749 135.494Z" fill="#004AF6"/>
<path d="M447.383 139.341L447.109 137.616C447.109 137.489 447.087 137.364 447.045 137.248C447.002 137.132 446.94 137.027 446.862 136.94L445.595 136.207C445.501 136.073 445.425 135.922 445.369 135.761V135.723C445.44 135.62 445.49 135.499 445.517 135.37C445.519 135.337 445.519 135.303 445.517 135.27C445.636 135.29 445.758 135.255 445.856 135.172C445.953 135.089 446.02 134.964 446.042 134.824V134.786C446.018 134.9 445.963 135.002 445.887 135.076C445.81 135.151 445.716 135.195 445.616 135.202C445.79 135.065 445.932 134.881 446.032 134.665C446.132 134.449 446.186 134.207 446.189 133.961C446.189 133.961 446.189 133.918 446.189 133.899C446.246 133.859 446.294 133.804 446.331 133.74C446.368 133.676 446.393 133.603 446.405 133.527V133.49C446.389 133.563 446.361 133.631 446.322 133.691C446.284 133.751 446.235 133.8 446.179 133.837C446.169 133.695 446.143 133.555 446.1 133.421H446.132C446.256 133.421 446.375 133.363 446.463 133.26C446.55 133.156 446.6 133.016 446.6 132.869C446.6 132.869 446.6 132.869 446.6 132.832C446.592 132.972 446.539 133.103 446.452 133.199C446.365 133.294 446.25 133.347 446.132 133.347H446.074C446.211 133.295 446.334 133.198 446.427 133.067C446.52 132.937 446.58 132.778 446.6 132.609C446.6 132.609 446.6 132.609 446.6 132.571C446.593 132.679 446.561 132.783 446.505 132.869C446.514 132.797 446.511 132.724 446.496 132.653C446.481 132.582 446.454 132.516 446.417 132.457C446.38 132.399 446.334 132.349 446.281 132.312C446.228 132.275 446.169 132.25 446.108 132.239C446.047 132.229 445.985 132.233 445.925 132.25C445.865 132.268 445.809 132.3 445.759 132.343C445.709 132.387 445.668 132.441 445.636 132.504C445.604 132.566 445.583 132.636 445.574 132.708L445.49 132.652C445.517 132.541 445.572 132.442 445.648 132.369C445.725 132.297 445.818 132.255 445.916 132.249H445.885C445.786 132.246 445.688 132.281 445.607 132.348C445.526 132.415 445.465 132.51 445.432 132.621C445.15 132.466 444.83 132.436 444.53 132.538C444.231 132.639 443.972 132.865 443.803 133.173C443.703 133.26 443.577 133.384 443.582 133.49C443.541 133.539 443.504 133.593 443.472 133.651C443.333 134.01 443.282 134.408 443.324 134.799C443.343 134.994 443.322 135.191 443.263 135.374C443.205 135.557 443.111 135.722 442.988 135.854C443.043 135.881 443.102 135.895 443.161 135.895C443.221 135.895 443.28 135.881 443.335 135.854C443.444 135.8 443.547 135.729 443.64 135.643C443.726 135.582 443.8 135.499 443.855 135.401C443.916 135.448 443.982 135.487 444.05 135.519C444.076 135.779 444.081 136.077 443.987 136.17V136.121C443.751 136.332 443.456 136.431 443.161 136.4C442.987 136.411 442.818 136.474 442.669 136.583C442.52 136.691 442.397 136.841 442.31 137.02L441.915 139.012V139.043V139.074C441.921 139.101 441.932 139.126 441.949 139.146C441.966 139.166 441.987 139.179 442.01 139.186L442.131 139.223C442.172 139.54 442.17 139.862 442.126 140.178C442.043 140.661 441.995 141.151 441.984 141.643C442.015 141.891 442.068 143.169 442.089 143.777C442.045 143.982 442.01 144.189 441.984 144.398L441.395 148.561C441.395 148.561 440.959 151.893 440.98 152.904L440.901 153.488C440.901 153.488 439.707 155.256 440.06 155.504C440.412 155.752 440.948 155.864 441.463 154.921C441.532 154.699 441.644 154.5 441.789 154.338C441.847 154.278 441.892 154.203 441.92 154.119C441.949 154.035 441.96 153.944 441.952 153.854L441.915 153.444H441.978H442.015C442.339 152.188 442.516 150.885 442.541 149.572C442.541 149.572 443.629 144.993 444.46 144.274L444.539 144.23L444.717 148.66L444.539 153.55L444.502 153.841C444.502 153.841 443.309 155.61 443.661 155.858C444.013 156.106 444.549 156.218 445.064 155.275C445.133 155.053 445.245 154.853 445.39 154.691C445.448 154.632 445.493 154.557 445.521 154.473C445.55 154.389 445.561 154.298 445.553 154.207L445.501 153.587C445.706 152.768 446.237 150.392 446.027 149.02L446.389 146.098C446.757 145.614 446.705 144.379 446.705 144.379C446.994 143.672 447.057 140.88 447.057 140.88L447.131 139.502H447.294H447.351L447.378 139.465V139.434L447.383 139.341ZM446.363 142.139C446.331 142.046 446.295 141.947 446.253 141.854H446.221V141.817V141.785V141.748C446.238 141.702 446.252 141.654 446.263 141.606C446.31 141.516 446.334 141.413 446.331 141.308C446.384 141.58 446.402 141.86 446.384 142.139H446.363ZM446.253 140.96L446.179 140.036V139.961L446.279 141.134L446.253 140.96ZM442.788 141.084C442.764 141.118 442.745 141.158 442.735 141.201C442.724 141.243 442.72 141.288 442.725 141.333C442.725 141.427 442.735 141.521 442.757 141.612L442.641 142.189V141.084C442.715 140.967 442.78 140.843 442.835 140.712C442.861 140.836 442.854 140.966 442.814 141.084H442.788Z" fill="url(#paint1_linear)"/>
<path d="M443.55 133.974C443.417 134.319 443.368 134.701 443.408 135.078C443.428 135.266 443.408 135.457 443.351 135.634C443.295 135.811 443.202 135.97 443.082 136.096C443.135 136.121 443.191 136.135 443.248 136.135C443.305 136.135 443.361 136.121 443.414 136.096C443.519 136.043 443.618 135.974 443.708 135.891C443.79 135.831 443.86 135.751 443.913 135.655C443.964 135.506 443.98 135.343 443.96 135.184C443.961 134.903 443.982 134.623 444.023 134.346C444.023 134.172 444.186 133.725 444.023 133.614C443.861 133.502 443.624 133.837 443.55 133.974Z" fill="#72351C"/>
<path d="M441.137 152.284L441.027 153.134C441.027 153.134 439.876 154.84 440.217 155.076C440.559 155.312 441.074 155.424 441.568 154.518C441.636 154.305 441.743 154.114 441.884 153.959C441.939 153.902 441.983 153.83 442.01 153.749C442.037 153.668 442.048 153.581 442.042 153.494L441.931 152.178L441.137 152.284Z" fill="#333333"/>
<path d="M444.602 152.625L444.491 153.475C444.491 153.475 443.34 155.182 443.682 155.417C444.024 155.653 444.539 155.765 445.033 154.859C445.1 154.647 445.208 154.455 445.348 154.301C445.404 154.243 445.447 154.171 445.475 154.09C445.502 154.009 445.513 153.922 445.506 153.835L445.396 152.52L444.602 152.625Z" fill="#333333"/>
<path d="M442.809 142.319C442.809 142.319 442.283 142.778 442.068 144.385L441.5 148.394C441.295 149.83 441.165 151.281 441.111 152.737L442.068 153.122C442.386 151.915 442.563 150.662 442.594 149.399C442.594 149.399 443.745 144.565 444.549 144.224L444.718 148.493L444.539 153.308L445.359 153.5C445.359 153.5 446.189 150.441 445.927 148.822L446.352 145.378C446.628 144.243 446.561 143.03 446.163 141.947L442.809 142.319Z" fill="#4D8AF0"/>
<g opacity="0.1">
<path opacity="0.1" d="M444.455 144.286V144.212C443.65 144.553 442.499 149.386 442.499 149.386C442.479 150.636 442.312 151.876 442.005 153.072L442.11 153.115C442.428 151.909 442.605 150.656 442.636 149.393C442.636 149.393 443.656 144.981 444.455 144.286Z" fill="black"/>
<path opacity="0.1" d="M446.179 141.934H446.069C446.462 143.015 446.527 144.223 446.253 145.353L445.827 148.797C446.079 150.329 445.343 153.14 445.269 153.45H445.375C445.375 153.45 446.205 150.391 445.942 148.772L446.368 145.328C446.636 144.205 446.569 143.007 446.179 141.934Z" fill="black"/>
</g>
<path d="M442.073 139.179C442.073 139.212 442.082 139.245 442.099 139.271C442.116 139.297 442.141 139.315 442.168 139.322C442.432 139.396 442.679 139.535 442.893 139.732C443.298 140.104 442.467 138.987 442.467 138.987L442.189 139.062L442.073 139.179Z" fill="#F55F44"/>
<path opacity="0.1" d="M442.073 139.179C442.073 139.212 442.082 139.245 442.099 139.271C442.116 139.297 442.141 139.315 442.168 139.322C442.432 139.396 442.679 139.535 442.893 139.732C443.298 140.104 442.467 138.987 442.467 138.987L442.189 139.062L442.073 139.179Z" fill="black"/>
<path d="M446.027 140.178C446.364 139.893 446.756 139.71 447.167 139.645C447.195 139.645 447.222 139.632 447.242 139.609C447.261 139.585 447.272 139.554 447.272 139.521C447.155 139.458 447.027 139.425 446.898 139.424C446.769 139.423 446.642 139.455 446.524 139.517C446.406 139.58 446.3 139.671 446.215 139.785C446.129 139.899 446.065 140.033 446.027 140.178Z" fill="#F55F44"/>
<path opacity="0.1" d="M447.272 139.502C447.155 139.439 447.027 139.406 446.898 139.405C446.769 139.405 446.642 139.437 446.524 139.499C446.406 139.561 446.3 139.652 446.215 139.766C446.129 139.88 446.065 140.014 446.027 140.16C446.027 140.16 446.731 139.539 447.22 139.626" fill="black"/>
<path d="M444.917 135.779C445.605 135.779 446.163 135.121 446.163 134.309C446.163 133.497 445.605 132.838 444.917 132.838C444.229 132.838 443.671 133.497 443.671 134.309C443.671 135.121 444.229 135.779 444.917 135.779Z" fill="#72351C"/>
<path d="M444.055 135.339C444.055 135.339 444.234 136.201 444.055 136.381C443.876 136.561 443.529 136.884 443.792 137.138C444.055 137.392 445.012 137.821 445.327 137.616C445.643 137.411 446.005 137.467 445.921 137.039C445.837 136.611 445.143 136.698 445.127 134.557L444.055 135.339Z" fill="#FDB797"/>
<path opacity="0.1" d="M442.294 138.938C442.321 139.405 442.296 139.874 442.22 140.334C442.14 140.798 442.095 141.269 442.084 141.742C442.12 142.052 442.199 144.106 442.199 144.106C442.199 144.106 442.063 145.905 442.804 145.738C443.545 145.57 442.688 143.69 442.688 143.69L442.725 141.208C442.931 140.888 443.061 140.509 443.104 140.11C443.135 139.558 442.294 138.938 442.294 138.938Z" fill="black"/>
<path d="M442.278 138.938C442.305 139.405 442.281 139.874 442.205 140.334C442.125 140.798 442.079 141.269 442.068 141.742C442.105 142.052 442.184 144.106 442.184 144.106C442.184 144.106 442.047 145.905 442.788 145.738C443.529 145.57 442.672 143.69 442.672 143.69L442.709 141.208C442.915 140.888 443.045 140.509 443.088 140.11C443.125 139.558 442.278 138.938 442.278 138.938Z" fill="#FDB797"/>
<path opacity="0.1" d="M447.025 139.055L446.926 140.973C446.926 140.973 446.862 143.659 446.584 144.342C446.584 144.342 446.657 146.203 445.916 146.203C445.175 146.203 446.042 144.137 446.042 144.137C446.042 144.137 446.442 142.04 446.237 141.37L446.042 139.068L447.025 139.055Z" fill="black"/>
<path d="M447.036 139.055L446.936 140.973C446.936 140.973 446.873 143.659 446.594 144.342C446.594 144.342 446.668 146.203 445.927 146.203C445.185 146.203 446.053 144.137 446.053 144.137C446.053 144.137 446.452 142.04 446.247 141.37L446.053 139.068L447.036 139.055Z" fill="#FDB797"/>
<path opacity="0.1" d="M444.623 137.194C444.623 137.194 445.222 137.523 445.553 136.574L446.778 137.281C446.853 137.365 446.913 137.466 446.953 137.578C446.994 137.69 447.015 137.811 447.015 137.932L447.278 139.595C447.166 139.544 447.047 139.519 446.928 139.522C446.808 139.525 446.69 139.557 446.581 139.615C446.472 139.672 446.374 139.755 446.292 139.859C446.21 139.962 446.147 140.083 446.105 140.216L446.179 141.153C446.239 141.384 446.225 141.633 446.142 141.854C446.135 141.873 446.131 141.894 446.131 141.916C446.131 141.937 446.135 141.958 446.142 141.978C446.164 142.046 446.172 142.12 446.164 142.192C446.157 142.265 446.136 142.334 446.101 142.395C446.067 142.456 446.021 142.506 445.966 142.541C445.912 142.576 445.852 142.596 445.79 142.598C445.461 142.602 445.133 142.631 444.807 142.685C444.544 142.772 443.755 142.505 443.487 142.685C443.219 142.865 442.667 142.549 442.667 142.549L442.82 141.792C442.82 141.792 442.72 141.419 442.82 141.289C442.916 140.752 442.894 140.194 442.757 139.67C442.757 139.67 442.304 139.167 442.042 139.254L442.42 137.337C442.5 137.158 442.617 137.008 442.761 136.899C442.905 136.79 443.07 136.727 443.24 136.716C443.524 136.747 443.807 136.652 444.034 136.449C444.034 136.449 443.74 137.076 444.623 137.194Z" fill="black"/>
<path opacity="0.1" d="M444.686 137.163C444.849 137.213 445.291 137.275 445.553 136.493L446.778 137.2C446.853 137.284 446.913 137.385 446.953 137.497C446.994 137.609 447.015 137.73 447.015 137.852L447.278 139.514C447.166 139.463 447.047 139.438 446.928 139.441C446.808 139.445 446.69 139.476 446.581 139.534C446.472 139.592 446.374 139.675 446.292 139.778C446.21 139.881 446.147 140.002 446.105 140.135L446.179 141.072L446.226 141.258C446.248 141.337 446.254 141.421 446.243 141.503C446.232 141.585 446.204 141.662 446.163 141.73C446.15 141.756 446.143 141.786 446.143 141.816C446.143 141.847 446.15 141.877 446.163 141.903C446.185 141.972 446.193 142.045 446.186 142.118C446.178 142.19 446.157 142.26 446.122 142.32C446.088 142.381 446.042 142.431 445.987 142.467C445.933 142.502 445.873 142.522 445.811 142.524C445.482 142.527 445.154 142.556 444.828 142.611C444.565 142.698 443.776 142.431 443.508 142.611C443.24 142.791 442.688 142.474 442.688 142.474L442.841 141.717C442.841 141.717 442.741 141.345 442.841 141.215C442.937 140.677 442.915 140.12 442.778 139.595C442.778 139.595 442.326 139.093 442.063 139.179L442.441 137.262C442.521 137.084 442.638 136.933 442.782 136.824C442.926 136.716 443.091 136.653 443.261 136.642C443.545 136.672 443.828 136.577 444.055 136.375C444.055 136.375 443.761 136.995 444.539 137.15L444.686 137.163Z" fill="black"/>
<path d="M444.686 137.194C444.849 137.244 445.291 137.306 445.553 136.524L446.778 137.231C446.853 137.315 446.913 137.416 446.953 137.528C446.994 137.64 447.015 137.761 447.015 137.883L447.278 139.546C447.166 139.494 447.047 139.469 446.928 139.472C446.808 139.476 446.69 139.507 446.581 139.565C446.472 139.623 446.374 139.706 446.292 139.809C446.21 139.912 446.147 140.033 446.105 140.166L446.179 141.103C446.239 141.334 446.225 141.583 446.142 141.804C446.135 141.824 446.131 141.845 446.131 141.866C446.131 141.887 446.135 141.909 446.142 141.928C446.164 141.997 446.172 142.07 446.164 142.143C446.157 142.215 446.136 142.285 446.101 142.345C446.067 142.406 446.021 142.456 445.966 142.491C445.912 142.527 445.852 142.546 445.79 142.549C445.461 142.552 445.133 142.581 444.807 142.636C444.544 142.722 443.755 142.456 443.487 142.636C443.219 142.815 442.667 142.499 442.667 142.499L442.82 141.742C442.82 141.742 442.72 141.37 442.82 141.239C442.916 140.702 442.894 140.145 442.757 139.62C442.757 139.62 442.304 139.117 442.042 139.204L442.42 137.287C442.5 137.109 442.617 136.958 442.761 136.849C442.905 136.74 443.07 136.678 443.24 136.667C443.524 136.697 443.807 136.602 444.034 136.4C444.034 136.4 443.74 137.02 444.518 137.175L444.686 137.194Z" fill="#F55F44"/>
<path opacity="0.1" d="M445.149 134.625L444.097 135.413C444.124 135.548 444.145 135.685 444.16 135.823C444.282 135.88 444.413 135.909 444.544 135.91C444.806 135.889 445.053 135.757 445.238 135.537C445.184 135.237 445.154 134.932 445.149 134.625Z" fill="black"/>
<path d="M444.502 135.835C445.071 135.835 445.532 135.291 445.532 134.619C445.532 133.947 445.071 133.403 444.502 133.403C443.933 133.403 443.472 133.947 443.472 134.619C443.472 135.291 443.933 135.835 444.502 135.835Z" fill="#FDB797"/>
<path d="M446.027 133.682C446.276 133.682 446.479 133.443 446.479 133.148C446.479 132.854 446.276 132.615 446.027 132.615C445.777 132.615 445.574 132.854 445.574 133.148C445.574 133.443 445.777 133.682 446.027 133.682Z" fill="#72351C"/>
<path d="M446.111 133.713C445.996 133.713 445.886 133.662 445.802 133.57C445.718 133.478 445.667 133.352 445.659 133.217C445.659 133.217 445.659 133.217 445.659 133.254C445.659 133.395 445.706 133.531 445.791 133.631C445.876 133.731 445.991 133.788 446.111 133.788C446.231 133.788 446.346 133.731 446.43 133.631C446.515 133.531 446.563 133.395 446.563 133.254C446.563 133.254 446.563 133.254 446.563 133.217C446.555 133.352 446.504 133.478 446.42 133.57C446.336 133.662 446.225 133.713 446.111 133.713Z" fill="#72351C"/>
<path d="M445.853 134.247C445.741 134.222 445.64 134.149 445.572 134.041C445.504 133.932 445.472 133.798 445.485 133.663V133.701C445.463 133.841 445.49 133.985 445.558 134.102C445.627 134.219 445.732 134.299 445.85 134.324C445.969 134.35 446.091 134.319 446.19 134.238C446.289 134.157 446.357 134.033 446.379 133.893V133.856C446.35 133.988 446.28 134.102 446.182 134.175C446.084 134.247 445.966 134.273 445.853 134.247Z" fill="#72351C"/>
<path d="M445.501 135.525C445.388 135.501 445.288 135.427 445.22 135.319C445.151 135.211 445.12 135.076 445.133 134.942V134.979C445.111 135.119 445.138 135.263 445.206 135.38C445.275 135.497 445.38 135.577 445.498 135.602C445.617 135.628 445.739 135.597 445.838 135.516C445.937 135.435 446.005 135.311 446.027 135.171V135.134C445.998 135.266 445.927 135.38 445.83 135.453C445.732 135.526 445.614 135.551 445.501 135.525Z" fill="#72351C"/>
<path d="M446.111 133.434C445.996 133.434 445.886 133.383 445.802 133.291C445.718 133.199 445.667 133.072 445.659 132.937C445.659 132.937 445.659 132.937 445.659 132.975C445.659 133.116 445.706 133.252 445.791 133.352C445.876 133.452 445.991 133.508 446.111 133.508C446.231 133.508 446.346 133.452 446.43 133.352C446.515 133.252 446.563 133.116 446.563 132.975C446.563 132.975 446.563 132.975 446.563 132.937C446.555 133.072 446.504 133.199 446.42 133.291C446.336 133.383 446.225 133.434 446.111 133.434Z" fill="#72351C"/>
<path d="M445.48 133.142C445.481 133.007 445.525 132.877 445.604 132.779C445.683 132.682 445.791 132.623 445.905 132.615H445.873C445.754 132.615 445.639 132.671 445.554 132.771C445.469 132.871 445.422 133.007 445.422 133.148C445.422 133.29 445.469 133.426 445.554 133.526C445.639 133.626 445.754 133.682 445.873 133.682H445.905C445.789 133.674 445.68 133.614 445.601 133.513C445.521 133.412 445.478 133.28 445.48 133.142Z" fill="#72351C"/>
<path opacity="0.1" d="M445.937 138.187C445.983 138.451 445.983 138.723 445.937 138.987C445.937 138.987 445.875 139.688 445.973 139.806" fill="black"/>
<path opacity="0.1" d="M442.877 138.317C442.924 138.581 442.924 138.854 442.877 139.117C442.877 139.117 442.815 139.819 442.913 139.936" fill="black"/>
<path opacity="0.1" d="M442.851 141.214C442.948 141.254 443.054 141.254 443.151 141.214C443.269 141.173 443.395 141.173 443.514 141.214" fill="black"/>
<path opacity="0.1" d="M443.004 140.179C443.362 140.201 443.719 140.135 444.055 139.986C444.055 139.986 445.338 140.36 445.706 140.092" fill="black"/>
<path d="M442.646 146.563H442.294C442.172 146.563 442.073 146.68 442.073 146.824V146.88C442.073 147.024 442.172 147.14 442.294 147.14H442.646C442.768 147.14 442.867 147.024 442.867 146.88V146.824C442.867 146.68 442.768 146.563 442.646 146.563Z" fill="#FDB797"/>
<path d="M442.073 146.712H442.499L442.867 146.781H442.736L442.073 146.712Z" fill="#F0E4E4"/>
<path d="M444.928 144.305H445.354L445.721 144.348H445.59L444.928 144.305Z" fill="#F0E4E4"/>
<path d="M444.928 144.41H445.354L445.721 144.454H445.59L444.928 144.41Z" fill="#F0E4E4"/>
<path d="M444.928 144.522H445.354L445.721 144.565H445.59L444.928 144.522Z" fill="#F0E4E4"/>
<path d="M444.928 144.615H445.354L445.721 144.659H445.59L444.928 144.615Z" fill="#F0E4E4"/>
<path d="M442.073 147.122H442.499L442.867 147.171H442.736L442.073 147.122Z" fill="#F0E4E4"/>
<path d="M442.073 147.072H442.499L442.867 147.122H442.736L442.073 147.072Z" fill="#F0E4E4"/>
<path d="M442.073 147.004H442.499L442.867 147.054H442.736L442.073 147.004Z" fill="#F0E4E4"/>
<path d="M442.073 146.966H442.499L442.867 147.016H442.736L442.073 146.966Z" fill="#F0E4E4"/>
<path d="M442.073 146.644H442.499L442.867 146.712H442.736L442.073 146.644Z" fill="#F0E4E4"/>
<path d="M442.073 146.557H442.499L442.867 146.625H442.736L442.073 146.557Z" fill="#F0E4E4"/>
<path opacity="0.1" d="M444.676 133.837C444.634 134.291 444.683 134.75 444.817 135.177C444.882 135.384 444.91 135.604 444.899 135.824C444.888 136.044 444.839 136.259 444.754 136.456C444.81 136.472 444.869 136.472 444.924 136.455C444.98 136.439 445.032 136.407 445.075 136.362C445.165 136.269 445.243 136.16 445.306 136.04C445.374 135.942 445.422 135.827 445.448 135.705C445.459 135.512 445.433 135.32 445.375 135.14C445.304 134.81 445.253 134.474 445.222 134.135C445.222 133.93 445.222 133.335 445.028 133.279C444.833 133.223 444.712 133.663 444.676 133.837Z" fill="black"/>
<path d="M444.702 133.825C444.66 134.278 444.709 134.737 444.844 135.165C444.91 135.373 444.94 135.595 444.93 135.817C444.92 136.04 444.871 136.257 444.786 136.456C444.842 136.472 444.9 136.472 444.956 136.455C445.012 136.439 445.063 136.407 445.106 136.363C445.196 136.269 445.274 136.16 445.338 136.04C445.405 135.942 445.454 135.827 445.48 135.705C445.49 135.513 445.465 135.32 445.406 135.14C445.335 134.81 445.285 134.474 445.254 134.135C445.254 133.93 445.254 133.335 445.059 133.279C444.865 133.223 444.754 133.651 444.702 133.825Z" fill="#72351C"/>
<path opacity="0.1" d="M444.26 134.141C444.344 134.247 444.365 134.408 444.439 134.532C444.505 134.617 444.587 134.682 444.678 134.724C444.769 134.766 444.867 134.783 444.965 134.774C445.016 134.771 445.066 134.784 445.112 134.811C445.191 134.873 445.196 135.01 445.248 135.103C445.276 135.139 445.309 135.167 445.346 135.187C445.383 135.207 445.423 135.217 445.464 135.217C445.505 135.217 445.545 135.207 445.582 135.187C445.619 135.167 445.652 135.139 445.679 135.103C445.767 134.954 445.812 134.775 445.806 134.594C445.822 134.388 445.822 134.18 445.806 133.974C445.801 133.728 445.718 133.494 445.574 133.316C445.455 133.212 445.316 133.142 445.17 133.111C444.969 133.027 444.753 133.008 444.544 133.055C444.443 133.095 444.348 133.152 444.26 133.223L443.892 133.515C443.755 133.626 443.503 133.85 443.75 133.974C443.929 134.017 444.129 133.974 444.26 134.141Z" fill="black"/>
<path d="M444.286 134.129C444.37 134.234 444.392 134.396 444.465 134.52C444.532 134.604 444.613 134.67 444.704 134.712C444.795 134.754 444.893 134.771 444.991 134.762C445.042 134.758 445.093 134.771 445.138 134.799C445.217 134.861 445.222 134.997 445.275 135.09C445.302 135.126 445.335 135.155 445.372 135.175C445.409 135.194 445.45 135.204 445.49 135.204C445.531 135.204 445.571 135.194 445.608 135.175C445.645 135.155 445.679 135.126 445.706 135.09C445.811 134.941 445.869 134.752 445.869 134.557C445.885 134.35 445.885 134.143 445.869 133.936C445.864 133.691 445.781 133.456 445.637 133.279C445.518 133.175 445.379 133.105 445.233 133.074C445.032 132.99 444.816 132.971 444.607 133.018C444.506 133.058 444.411 133.114 444.323 133.186L443.955 133.477C443.819 133.589 443.566 133.812 443.813 133.936C443.955 133.974 444.15 133.974 444.286 134.129Z" fill="#72351C"/>
<path d="M444.954 144.305H445.38L445.748 144.348H445.616L444.954 144.305Z" fill="#F0E4E4"/>
<path d="M444.954 144.41H445.38L445.748 144.454H445.616L444.954 144.41Z" fill="#F0E4E4"/>
<path d="M444.954 144.522H445.38L445.748 144.565H445.616L444.954 144.522Z" fill="#F0E4E4"/>
<path d="M444.954 144.615H445.38L445.748 144.659H445.616L444.954 144.615Z" fill="#F0E4E4"/>
<path d="M444.754 150.342H445.18L445.548 150.386H445.417L444.754 150.342Z" fill="#F0E4E4"/>
<path d="M444.754 150.441H445.18L445.548 150.485H445.417L444.754 150.441Z" fill="#F0E4E4"/>
<path d="M444.754 150.547H445.18L445.548 150.59H445.417L444.754 150.547Z" fill="#F0E4E4"/>
<path d="M444.754 150.652H445.18L445.548 150.696H445.417L444.754 150.652Z" fill="#F0E4E4"/>
<path opacity="0.2" d="M206.28 431.034H164.464V403.23H206.28V431.034ZM166.231 428.949H204.503V405.315H166.231V428.949Z" fill="#004AF6"/>
<path d="M136.633 389.35C139.262 391.162 142.032 391.9 144.897 390.777C145.642 390.482 146.361 390.106 147.047 389.654C173.859 390.324 198.688 390.014 199.65 386.608C201.228 380.961 191.239 353.152 186.197 339.712C187.68 338.522 188.934 336.976 189.877 335.176C196.88 344.626 209.907 356.819 217.651 357.427C217.651 357.427 228.954 389.114 241.671 384.107C254.388 379.1 255.802 352.419 249.441 349.087L207.052 317.4V264.82C208.341 261.806 208.951 258.451 208.824 255.079C208.824 254.458 208.85 253.838 208.824 253.217L207.41 238.208C207.41 238.208 207.336 237.712 207.142 236.812C203.988 222.348 196.959 212.613 187.049 211.167C187.531 210.127 187.825 208.98 187.911 207.798C188.116 204.994 187.128 202.133 187.685 199.397C188.337 196.208 190.839 194.148 192.895 191.951C197.285 187.211 200.05 180.783 202.721 174.51C205.265 168.534 207.846 162.404 208.503 155.765C209.161 149.126 207.452 141.755 202.852 137.846C199.277 134.799 194.246 133.999 191.675 129.779C190.524 127.881 190.046 125.541 189.252 123.407C186.965 117.258 182.034 112.896 176.682 110.619C157.903 102.64 134.867 111.798 122.886 130.201C118.974 136.207 116.151 143.082 113.36 149.901L103.266 174.528C101.526 178.766 99.8436 184.059 102.167 187.887C103.303 189.749 105.248 190.903 106.037 193.006C107.088 195.798 105.774 199.453 107.319 201.91C108.171 203.269 109.648 203.809 110.915 204.603C112.617 205.746 114.097 207.295 115.263 209.151L93.0987 229.422C91.4972 230.886 90.165 232.721 89.1835 234.812C88.2019 236.904 87.5915 239.21 87.3894 241.589L85.1972 267.377C84.4997 270.305 84.1667 273.338 84.2089 276.38C84.13 279.097 84.3981 282.094 85.5494 284.446L86.0331 284.309C86.5588 302.396 87.4736 328.419 88.3778 333.228C88.9035 336.082 92.2208 341.114 96.6893 346.301L95.1122 351.575H95.6379L95.1122 353.232H96.1636C91.7056 372.244 79.5773 386.57 79.5773 386.57C79.5773 386.57 107.624 388.37 136.633 389.35ZM110.274 301.503V281.232C112.86 281.703 114.769 282.758 115.378 284.682L110.274 301.503ZM117.76 213.283L117.844 213.432H117.813L117.76 213.283Z" fill="url(#paint2_linear)"/>
<path d="M181.534 259.31C181.534 259.31 182.875 315.538 184.221 322.667C185.567 329.797 205.029 351.203 215.085 351.997C215.085 351.997 225.821 382.091 237.901 377.338C249.982 372.585 251.323 347.244 245.261 344.074L205.029 313.981V253.794L181.534 259.31Z" fill="#FDB797"/>
<path d="M182.544 328.239C182.544 328.239 199.992 372.591 197.979 379.739C195.965 386.887 83.8987 379.739 83.8987 379.739C83.8987 379.739 104.701 355.187 100.674 328.239H182.544Z" fill="#565171"/>
<path d="M169.122 196.772C169.122 196.772 166.436 227.66 171.136 234.789C175.836 241.918 152.347 245.871 150.354 245.871C148.362 245.871 126.871 237.184 122.844 234.783C118.817 232.382 115.484 214.983 115.484 214.983C115.484 214.983 135.613 219.736 141.654 192.026L169.122 196.772Z" fill="#FDB797"/>
<path d="M176.156 117.543C181.24 119.703 185.924 123.848 188.095 129.686C188.852 131.715 189.304 133.936 190.398 135.742C192.837 139.763 197.616 140.52 201.012 143.417C205.37 147.14 206.984 154.133 206.38 160.437C205.775 166.741 203.32 172.567 200.907 178.239C198.368 184.201 195.744 190.301 191.576 194.805C189.63 196.909 187.244 198.863 186.623 201.891C186.098 204.491 187.033 207.203 186.834 209.871C186.35 216.454 179.684 219.519 174.117 220.251C171.698 220.568 168.928 220.586 167.224 218.533C166.352 217.478 165.915 216.051 165.358 214.723C164.092 211.699 162.14 209.148 159.72 207.354C157.3 205.559 154.506 204.591 151.648 204.556C148.79 204.521 145.98 205.422 143.529 207.157C141.078 208.892 139.083 211.395 137.763 214.388C136.46 217.354 135.697 220.946 133.321 222.758C129.683 225.531 124.82 222.274 122.144 218.266C119.469 214.257 117.518 209.219 113.696 206.818C112.492 206.061 111.068 205.577 110.284 204.262C108.818 201.929 110.064 198.46 109.07 195.804C108.318 193.806 106.473 192.702 105.39 190.94C103.182 187.304 104.78 182.253 106.441 178.251L116.03 154.859C118.659 148.381 121.366 141.829 125.078 136.145C136.439 118.66 158.319 109.961 176.156 117.543Z" fill="#8F5A6A"/>
<path opacity="0.1" d="M151.679 240.33C151.679 240.33 125.509 240.33 118.801 211.819L96.7735 231.966C95.2533 233.358 93.989 235.101 93.0572 237.088C92.1254 239.076 91.5457 241.266 91.3534 243.525L89.2505 268.053C89.2505 268.053 86.9006 277.162 89.587 282.702C89.587 282.702 117.45 274.388 118.107 283.888L98.666 348.039C98.666 348.039 128.863 348.833 136.912 342.498C136.912 342.498 169.79 350.415 177.844 341.704C185.898 332.992 193.946 333.786 187.238 313.987C187.238 313.987 200.66 298.146 194.598 275.97C188.537 253.794 194.262 276.367 194.262 276.367C194.262 276.367 207.347 268.841 206.674 254.589L205.333 240.318C205.333 240.318 205.26 239.846 205.076 238.996C200.986 220.208 189.993 209.833 174.542 216.448C170.027 218.377 165.411 216.169 165.411 216.169C165.411 216.169 170.463 241.937 151.679 240.33Z" fill="black"/>
<path d="M151.679 238.748C151.679 238.748 125.509 238.748 118.801 210.237L96.7735 230.384C95.2539 231.775 93.9899 233.517 93.0582 235.503C92.1264 237.489 91.5464 239.678 91.3534 241.937L89.2505 266.464C89.2505 266.464 86.9006 275.573 89.587 281.114C89.587 281.114 117.45 272.799 118.107 282.299L98.6555 346.45C98.6555 346.45 128.853 347.244 136.901 340.909C136.901 340.909 169.779 348.827 177.833 340.115C185.887 331.404 193.936 332.198 187.228 312.398C187.228 312.398 200.649 296.558 194.588 274.382C188.526 252.206 194.251 274.779 194.251 274.779C194.251 274.779 207.336 267.252 206.664 253L205.323 238.729C205.323 238.729 205.249 238.257 205.065 237.407C200.975 218.619 189.983 208.245 174.532 214.859C170.016 216.789 165.4 214.58 165.4 214.58C165.4 214.58 170.463 240.33 151.679 238.748Z" fill="#B45181"/>
<path d="M89.608 265.67C89.608 265.67 90.9485 321.898 92.2944 329.027C93.6402 336.156 113.097 357.538 123.159 358.332C123.159 358.332 133.894 388.426 145.975 383.673C158.056 378.92 159.397 353.58 153.335 350.409L113.076 320.316V260.129L89.608 265.67Z" fill="#FDB797"/>
<path opacity="0.1" d="M118.459 267.649C118.459 267.649 103.04 280.009 89.608 278.979C89.608 278.979 88.2674 257.753 92.2944 256.568C96.3214 255.383 113.765 256.568 118.459 267.649Z" fill="black"/>
<path d="M118.459 266.862C118.459 266.862 103.04 279.222 89.608 278.185C89.608 278.185 88.2674 256.959 92.2944 255.774C96.3214 254.588 113.765 255.774 118.459 266.862Z" fill="#B45181"/>
<path opacity="0.1" d="M140.271 193.602L167.782 198.354C167.782 198.354 167.161 205.502 167.04 213.711C161.695 216.371 155.822 217.2 150.095 216.103C144.369 215.005 139.02 212.026 134.662 207.507C136.964 204.156 138.952 199.651 140.271 193.602Z" fill="black"/>
<path d="M156.374 214.983C173.42 214.983 187.238 198.674 187.238 178.555C187.238 158.436 173.42 142.127 156.374 142.127C139.328 142.127 125.509 158.436 125.509 178.555C125.509 198.674 139.328 214.983 156.374 214.983Z" fill="#FDB797"/>
<path opacity="0.1" d="M148.251 171.556C149.524 172.251 150.975 172.263 152.378 172.251C157.839 172.21 163.294 171.972 168.744 171.537C172.876 171.209 177.281 170.638 180.467 167.517C184.757 163.316 185.435 155.442 183.222 149.405C181.009 143.368 176.493 138.919 171.725 135.519C169.027 133.5 166.104 131.936 163.04 130.871C154.192 128.036 144.408 131.492 137.38 138.472C130.351 145.452 125.872 155.461 123.501 165.916C122.681 169.533 121.629 173.839 118.596 174.938C120.615 178.902 125.541 179.529 129.084 177.544C134.299 174.615 136.97 163.409 141.654 161.647C146.864 159.705 143.825 169.161 148.251 171.556Z" fill="black"/>
<path d="M148.251 170.762C149.524 171.457 150.975 171.469 152.378 171.457C157.839 171.415 163.294 171.178 168.744 170.743C172.876 170.414 177.281 169.843 180.467 166.722C184.757 162.522 185.435 154.648 183.222 148.611C181.009 142.573 176.493 138.125 171.725 134.724C169.03 132.718 166.113 131.165 163.056 130.108C154.208 127.272 144.424 130.728 137.395 137.709C130.367 144.689 125.888 154.698 123.517 165.153C122.696 168.77 121.645 173.076 118.612 174.174C120.63 178.139 125.556 178.766 129.1 176.78C134.315 173.852 136.985 162.646 141.669 160.884C146.864 158.917 143.825 168.367 148.251 170.762Z" fill="#8F5A6A"/>
<path opacity="0.1" d="M187.575 312.001C177.508 308.827 167.13 307.229 156.71 307.248L187.575 312.001Z" fill="black"/>
<path opacity="0.1" d="M118.459 269.238C118.459 269.238 128.527 277.925 125.819 282.702L118.459 269.238Z" fill="black"/>
<g opacity="0.7">
<path opacity="0.7" d="M396.693 359.033H67.2283V393.029H86.4064V399.669V500.006H378.199V399.669V393.029H396.693V359.033Z" fill="url(#paint3_linear)"/>
</g>
<path d="M375.218 378.833H89.3715V500.006H375.218V378.833Z" fill="#E0E0E0"/>
<path opacity="0.1" d="M375.218 385.168H89.3715V404.173H375.218V385.168Z" fill="black"/>
<path d="M393.339 365.369H70.5824V397.838H393.339V365.369Z" fill="#E0E0E0"/>
<path d="M189.883 357.377H134.982C133.095 357.377 131.565 359.183 131.565 361.41V363.637C131.565 365.865 133.095 367.671 134.982 367.671H189.883C191.77 367.671 193.3 365.865 193.3 363.637V361.41C193.3 359.183 191.77 357.377 189.883 357.377Z" fill="#535461"/>
<g opacity="0.7">
<path opacity="0.7" d="M307.732 242.588H183.974C175.78 242.588 169.138 250.428 169.138 260.098V350.291C169.138 359.961 175.78 367.801 183.974 367.801H307.732C315.926 367.801 322.568 359.961 322.568 350.291V260.098C322.568 250.428 315.926 242.588 307.732 242.588Z" fill="url(#paint4_linear)"/>
</g>
<path d="M303.111 244.903H185.987C178.194 244.903 171.877 252.359 171.877 261.556V351.147C171.877 360.345 178.194 367.801 185.987 367.801H303.111C310.904 367.801 317.221 360.345 317.221 351.147V261.556C317.221 252.359 310.904 244.903 303.111 244.903Z" fill="#3E3F49"/>
<path d="M305.125 244.903H188.001C180.208 244.903 173.891 252.359 173.891 261.556V351.147C173.891 360.345 180.208 367.801 188.001 367.801H305.125C312.917 367.801 319.235 360.345 319.235 351.147V261.556C319.235 252.359 312.917 244.903 305.125 244.903Z" fill="#535461"/>
<path d="M253.352 311.046C255.945 311.046 258.047 308.565 258.047 305.505C258.047 302.445 255.945 299.964 253.352 299.964C250.759 299.964 248.658 302.445 248.658 305.505C248.658 308.565 250.759 311.046 253.352 311.046Z" fill="#E0E0E0"/>
</g>
<defs>
<linearGradient id="paint0_linear" x1="397.945" y1="226.071" x2="397.945" y2="12.6454" gradientUnits="userSpaceOnUse">
<stop stop-color="#808080" stop-opacity="0.25"/>
<stop offset="0.54" stop-color="#808080" stop-opacity="0.12"/>
<stop offset="1" stop-color="#808080" stop-opacity="0.1"/>
</linearGradient>
<linearGradient id="paint1_linear" x1="7229.97" y1="7236.9" x2="7229.97" y2="6322.1" gradientUnits="userSpaceOnUse">
<stop stop-color="#808080" stop-opacity="0.25"/>
<stop offset="0.54" stop-color="#808080" stop-opacity="0.12"/>
<stop offset="1" stop-color="#808080" stop-opacity="0.1"/>
</linearGradient>
<linearGradient id="paint2_linear" x1="-92077.9" y1="192305" x2="-92077.9" y2="62666.7" gradientUnits="userSpaceOnUse">
<stop stop-color="#808080" stop-opacity="0.25"/>
<stop offset="0.54" stop-color="#808080" stop-opacity="0.12"/>
<stop offset="1" stop-color="#808080" stop-opacity="0.1"/>
</linearGradient>
<linearGradient id="paint3_linear" x1="145437" y1="113959" x2="145437" y2="81931.5" gradientUnits="userSpaceOnUse">
<stop stop-color="#808080" stop-opacity="0.25"/>
<stop offset="0.54" stop-color="#808080" stop-opacity="0.12"/>
<stop offset="1" stop-color="#808080" stop-opacity="0.1"/>
</linearGradient>
<linearGradient id="paint4_linear" x1="71922.1" y1="74464.8" x2="71922.1" y2="49196.9" gradientUnits="userSpaceOnUse">
<stop stop-color="#808080" stop-opacity="0.25"/>
<stop offset="0.54" stop-color="#808080" stop-opacity="0.12"/>
<stop offset="1" stop-color="#808080" stop-opacity="0.1"/>
</linearGradient>
<clipPath id="clip0">
<rect width="552" height="500" fill="white"/>
</clipPath>
</defs>
</svg>
