<?xml version="1.0"?>
<svg xmlns="http://www.w3.org/2000/svg" xmlns:xlink="http://www.w3.org/1999/xlink" version="1.1" id="Capa_1" x="0px" y="0px" viewBox="0 0 344.222 344.222" style="enable-background:new 0 0 344.222 344.222;" xml:space="preserve" width="512px" height="512px" class=""><g><g>
	<g>
		<g>
			<path d="M73.391,6.52l0.04,0.08h-4c-20.675,0-37.454,16.725-37.52,37.4v41.44h78.92V44C110.809,23.325,94.066,6.564,73.391,6.52z     " data-original="#000000" class="active-path" data-old_color="##0B41C" fill="#0B41CD"/>
			<path d="M287.391,0h-204.4c20.644,0.066,37.356,16.796,37.4,37.44V323.6c0,20.92,21.04,31.2,37.48,5l58.48-93.36l58.48,93.24     c16.44,26.2,37.48,16,37.48-5V24.84C312.202,11.136,301.096,0.065,287.391,0z M278.736,108.26     c-0.404,1.868-1.312,3.59-2.625,4.98L256.351,136l2.64,30.4c0.497,5.789-3.792,10.885-9.581,11.382     c-2.013,0.173-4.033-0.237-5.819-1.182l-27.24-11.52l-28,12c-5.341,2.23-11.479-0.292-13.709-5.633     c-0.65-1.556-0.914-3.246-0.771-4.927l2.64-30.4l-20-23c-3.816-4.352-3.381-10.973,0.971-14.789     c1.301-1.141,2.864-1.941,4.549-2.331l29.68-6.88l15.68-26.08c2.947-4.982,9.374-6.631,14.356-3.684     c1.519,0.898,2.786,2.166,3.684,3.684l0-0.08l15.6,25.96l29.68,6.88C276.368,97.025,279.961,102.603,278.736,108.26z" data-original="#000000" class="active-path" data-old_color="##0B41C" fill="#0B41CD"/>
		</g>
	</g>
</g></g> </svg>
