<svg width="36" height="40" viewBox="0 0 36 40" fill="none" xmlns="http://www.w3.org/2000/svg">
<path d="M35.2324 4.31596C35.2324 1.97791 33.3445 0.0583808 31.0121 0.00703383V0H5.05021C2.68824 0 0.766602 1.92094 0.766602 4.2836V40L14.1309 31.0909L27.4952 40V17.5846H35.2324V4.31596ZM26.0884 37.3722L14.1309 29.4L2.17337 37.3722V4.2836C2.17337 2.69747 3.46408 1.40677 5.05021 1.40677H27.5697C26.8783 2.08342 26.3866 2.96265 26.1876 3.94668L26.1869 3.94879C26.1552 4.10494 26.1306 4.26391 26.1144 4.42498C26.0975 4.58887 26.0884 4.75557 26.0884 4.92368V17.5846V37.3722ZM33.8256 16.1778H27.4952V4.92368C27.4952 4.68453 27.5198 4.45171 27.5655 4.22593C27.8377 2.89653 28.8724 1.83513 30.1877 1.51438C30.213 1.50805 30.2355 1.4968 30.2609 1.49188C30.4318 1.45389 30.6111 1.44053 30.7905 1.42927C30.8489 1.42576 30.9045 1.41239 30.9635 1.41169C32.5433 1.43772 33.8256 2.73475 33.8256 4.31596V16.1778Z" fill="black"/>
</svg>
