<svg width="50" height="50" viewBox="0 0 50 50" fill="none" xmlns="http://www.w3.org/2000/svg">
<g clip-path="url(#clip0)">
<path d="M25 20C20.8575 20 17.5 23.359 17.5 27.5C17.5 31.6425 20.8575 35 25 35C29.1415 35 32.5 31.6425 32.5 27.5C32.5 23.359 29.1415 20 25 20ZM45 12.5H39C38.175 12.5 37.286 11.86 37.0255 11.077L35.4745 6.4225C35.213 5.64 34.325 5 33.5 5H16.5C15.675 5 14.786 5.64 14.5255 6.423L12.9745 11.0775C12.713 11.86 11.825 12.5 11 12.5H5C2.25 12.5 0 14.75 0 17.5V40C0 42.75 2.25 45 5 45H45C47.75 45 50 42.75 50 40V17.5C50 14.75 47.75 12.5 45 12.5ZM25 40C18.0965 40 12.5 34.4035 12.5 27.5C12.5 20.597 18.0965 15 25 15C31.9025 15 37.5 20.597 37.5 27.5C37.5 34.4035 31.9025 40 25 40ZM43.25 20.9965C42.284 20.9965 41.5 20.2135 41.5 19.2465C41.5 18.2805 42.284 17.4965 43.25 17.4965C44.217 17.4965 45 18.2805 45 19.2465C45 20.2135 44.2165 20.9965 43.25 20.9965Z" fill="#0B41CD"/>
</g>
<defs>
<clipPath id="clip0">
<rect width="50" height="50" fill="white"/>
</clipPath>
</defs>
</svg>
