<svg width="25" height="17" viewBox="0 0 25 17" fill="none" xmlns="http://www.w3.org/2000/svg">
<g clip-path="url(#clip0)">
<path d="M9.45487 17.0001C8.67773 17.0001 7.94273 16.7529 7.47022 16.3289L1.0888 10.5982C0.258796 9.85284 0.474868 8.79156 1.57094 8.22691C2.6688 7.66203 4.22844 7.80993 5.0588 8.55477L6.30889 9.67724C7.94118 11.1429 10.4494 11.0204 11.9311 9.40262L19.812 0.797911C20.5388 0.00498258 22.0734 -0.237632 23.242 0.255854C24.4092 0.749826 24.7656 1.79411 24.0384 2.58777L11.5684 16.2023C11.1352 16.6757 10.3874 16.9734 9.56844 16.9987C9.53022 16.9996 9.49273 17.0001 9.45487 17.0001Z" fill="#00AF1C"/>
</g>
<defs>
<clipPath id="clip0">
<rect width="25" height="17" fill="white"/>
</clipPath>
</defs>
</svg>
