<svg width="30" height="32" viewBox="0 0 30 32" fill="none" xmlns="http://www.w3.org/2000/svg">
<g clip-path="url(#clip0)">
<path d="M6.62869 19.3908L5.58756 23.5071L1.78227 23.5924C0.645051 21.3584 0 18.8026 0 16.0865C0 13.4601 0.603107 10.9833 1.67216 8.80249H1.67297L5.06075 9.46028L6.5448 13.0267C6.23419 13.9857 6.0649 15.0152 6.0649 16.0865C6.06501 17.2491 6.26387 18.3631 6.62869 19.3908Z" fill="#FBBB00"/>
<path d="M29.6487 13.1277C29.8205 14.0858 29.91 15.0753 29.91 16.0865C29.91 17.2205 29.7975 18.3266 29.583 19.3935C28.855 23.0242 26.9527 26.1945 24.3176 28.438L24.3168 28.4371L20.0497 28.2066L19.4457 24.2138C21.1943 23.1278 22.5608 21.4281 23.2807 19.3935H15.2838V13.1277H23.3973H29.6487Z" fill="#518EF8"/>
<path d="M24.3166 28.4373L24.3174 28.4382C21.7546 30.6199 18.4989 31.9253 14.955 31.9253C9.25973 31.9253 4.30816 28.554 1.78223 23.5927L6.62864 19.3911C7.89158 22.9609 11.1431 25.502 14.955 25.502C16.5934 25.502 18.1284 25.0329 19.4455 24.214L24.3166 28.4373Z" fill="#28B446"/>
<path d="M24.5007 3.89438L19.6559 8.09506C18.2927 7.19263 16.6813 6.67132 14.955 6.67132C11.0568 6.67132 7.74449 9.32904 6.54482 13.0268L1.67294 8.8026H1.67212C4.16108 3.72034 9.17509 0.248047 14.955 0.248047C18.5836 0.248047 21.9107 1.61697 24.5007 3.89438Z" fill="#F14336"/>
</g>
<defs>
<clipPath id="clip0">
<rect width="29.91" height="31.6771" fill="white" transform="translate(0 0.248047)"/>
</clipPath>
</defs>
</svg>
