<svg width="100%" height="100%" viewBox="0 0 246 30" fill="none" xmlns="http://www.w3.org/2000/svg">
<path d="M13.948 29.1634L14.143 26.3944C15.027 26.3164 15.651 26.2384 16.015 26.1604C16.379 26.0824 16.626 25.9654 16.756 25.8094C16.886 25.6534 16.951 25.3934 16.951 25.0294C16.951 24.9514 16.899 24.6004 16.795 23.9764L16.21 21.6364C14.858 21.5844 13.753 21.5584 12.895 21.5584C12.297 21.5584 11.426 21.6104 10.282 21.7144L9.424 21.7924L8.722 24.2104C8.592 24.7824 8.527 25.1464 8.527 25.3024C8.527 25.6924 8.631 25.9654 8.839 26.1214C9.073 26.2514 9.489 26.3164 10.087 26.3164H11.491L11.725 26.6284L11.413 29.3974C11.023 29.3714 10.204 29.3324 8.956 29.2804C7.734 29.2544 6.616 29.2414 5.602 29.2414L0.688 29.2804L0.961 26.3554C1.507 26.2514 1.962 26.0174 2.326 25.6534C2.69 25.2634 3.002 24.7044 3.262 23.9764L9.892 4.28139L17.809 3.65739L18.316 3.96939C18.706 5.50339 19.499 8.59739 20.695 13.2514C21.917 17.9054 22.879 21.3894 23.581 23.7034C23.841 24.6134 24.166 25.2764 24.556 25.6924C24.972 26.0824 25.557 26.3034 26.311 26.3554L26.545 26.7064L26.233 29.3194C25.869 29.3194 25.193 29.3064 24.205 29.2804C23.243 29.2544 22.229 29.2414 21.163 29.2414C19.707 29.2414 18.277 29.2674 16.873 29.3194C15.469 29.3974 14.572 29.4494 14.182 29.4754L13.948 29.1634ZM12.934 17.8144C13.064 17.8144 13.909 17.7754 15.469 17.6974L13.597 9.81939H12.934L10.516 17.8144H12.934ZM28.1013 16.2544C28.1013 15.6044 28.0103 15.1494 27.8283 14.8894C27.6463 14.6294 27.3343 14.4994 26.8923 14.4994C26.6583 14.4994 26.4373 14.5124 26.2293 14.5384C26.0473 14.5644 25.9303 14.5774 25.8783 14.5774L26.1513 11.8864C27.6853 11.6784 29.2583 11.4314 30.8703 11.1454C32.4823 10.8594 33.5223 10.6644 33.9903 10.5604L34.4193 11.3014C34.1333 11.9254 33.8863 13.2904 33.6783 15.3964C33.4703 17.4764 33.3663 19.6864 33.3663 22.0264C33.3663 23.9244 34.0683 24.8734 35.4723 24.8734C35.8623 24.8734 36.2653 24.7824 36.6813 24.6004C37.0973 24.4184 37.5913 24.1454 38.1633 23.7814V16.3324C38.1633 15.6044 38.0593 15.1364 37.8513 14.9284C37.6693 14.6944 37.2533 14.5644 36.6033 14.5384H36.0573L36.4473 11.8864C37.9813 11.7044 39.5543 11.4834 41.1663 11.2234C42.8043 10.9374 43.8573 10.7554 44.3253 10.6774L44.7933 11.4184C44.4553 12.0164 44.1693 13.4854 43.9353 15.8254C43.7273 18.1394 43.6233 20.7134 43.6233 23.5474C43.6233 23.9894 43.7403 24.3534 43.9743 24.6394C44.2083 24.8994 44.5203 25.0294 44.9103 25.0294C45.2483 25.0294 45.5993 24.9514 45.9633 24.7954C46.3273 24.6394 46.5093 24.5484 46.5093 24.5224L47.1333 25.4194C47.0293 25.6014 46.7563 25.9914 46.3143 26.5894C45.8723 27.1874 45.3263 27.7984 44.6763 28.4224C44.0263 29.0464 43.3893 29.4624 42.7653 29.6704C40.2693 29.6704 38.8653 28.6954 38.5533 26.7454L38.2023 26.5504C37.2923 27.4864 36.4863 28.2404 35.7843 28.8124C35.0823 29.3584 34.6013 29.6314 34.3413 29.6314C32.2093 29.6314 30.5843 29.2024 29.4663 28.3444C28.3743 27.4604 27.8283 26.1994 27.8283 24.5614L28.1013 16.2544ZM54.9266 29.6704C51.2086 29.6704 49.3496 28.0584 49.3496 24.8344V16.6054C49.3496 15.7474 49.2066 15.1754 48.9206 14.8894C48.6606 14.6034 48.1146 14.4474 47.2826 14.4214L46.8146 14.1094L47.0876 11.8474C48.2056 11.3274 49.3106 10.7294 50.4026 10.0534C51.5206 9.37739 52.4436 8.79239 53.1716 8.29839C53.8996 7.80439 54.3546 7.47939 54.5366 7.32339L55.7846 8.02539C55.7586 8.18139 55.6936 8.59739 55.5896 9.27339C55.4856 9.92339 55.3816 10.7164 55.2776 11.6524L59.2946 11.5354L59.4896 11.7304L59.0606 14.6944L55.0046 14.5774C54.8746 16.9174 54.8096 19.5174 54.8096 22.3774C54.8096 23.3654 54.9786 24.0934 55.3166 24.5614C55.6806 25.0294 56.2526 25.2634 57.0326 25.2634C57.4486 25.2634 57.8776 25.1984 58.3196 25.0684C58.7616 24.9384 59.0476 24.8474 59.1776 24.7954L59.7236 26.1994C59.5416 26.3814 59.1516 26.7454 58.5536 27.2914C57.9556 27.8374 57.3056 28.3704 56.6036 28.8904C55.9016 29.4104 55.3426 29.6704 54.9266 29.6704ZM60.6989 26.5504C61.3749 26.4724 61.8299 26.2904 62.0639 26.0044C62.3239 25.6924 62.4539 25.1854 62.4539 24.4834V6.42639C62.4539 5.56839 62.3369 4.99639 62.1029 4.71039C61.8689 4.39839 61.4139 4.24239 60.7379 4.24239H59.8019L59.6069 4.00839L59.8799 1.59039C64.0399 1.01839 67.0559 0.576392 68.9279 0.264391L69.2399 1.12239C68.9539 1.43439 68.7069 2.70839 68.4989 4.94439C68.2909 7.15439 68.1349 10.1964 68.0309 14.0704C69.0189 13.0824 69.9679 12.2504 70.8779 11.5744C71.8139 10.8984 72.4899 10.5604 72.9059 10.5604C74.9079 10.5604 76.4289 11.0024 77.4689 11.8864C78.5349 12.7444 79.0679 13.9924 79.0679 15.6304C79.0679 16.1244 78.9379 17.5674 78.6779 19.9594C78.6259 20.4014 78.5349 21.2074 78.4049 22.3774C78.3009 23.5214 78.2489 24.3274 78.2489 24.7954C78.2489 25.3934 78.3269 25.8224 78.4829 26.0824C78.6649 26.3164 78.9769 26.4334 79.4189 26.4334L80.5109 26.3944L80.5889 26.5504L80.1989 29.3584C78.3789 29.2544 76.8449 29.2024 75.5969 29.2024C74.5049 29.2024 72.9969 29.2804 71.0729 29.4364L71.3459 26.5894C71.9179 26.4854 72.3209 26.2774 72.5549 25.9654C72.7889 25.6274 72.9189 25.1594 72.9449 24.5614L73.0619 18.3994C73.0879 17.3074 72.9189 16.5274 72.5549 16.0594C72.2169 15.5654 71.6709 15.3184 70.9169 15.3184C70.5529 15.3184 70.1109 15.4354 69.5909 15.6694C69.0709 15.9034 68.5379 16.2284 67.9919 16.6444C67.9659 17.9444 67.9529 20.6874 67.9529 24.8734C67.9529 25.4454 68.0309 25.8484 68.1869 26.0824C68.3429 26.3164 68.6159 26.4334 69.0059 26.4334L69.7859 26.3554L69.9029 26.6284L69.4739 29.3584C67.7059 29.2544 66.1979 29.2024 64.9499 29.2024C63.8579 29.2024 62.3239 29.2544 60.3479 29.3584L60.6989 26.5504ZM90.9962 29.6704C88.3962 29.6704 86.3162 28.8514 84.7562 27.2134C83.2222 25.5754 82.4552 23.3784 82.4552 20.6224C82.4552 18.5944 82.8452 16.8264 83.6252 15.3184C84.4312 13.7844 85.5492 12.6144 86.9792 11.8084C88.4352 10.9764 90.1252 10.5604 92.0492 10.5604C94.7272 10.5604 96.8202 11.3534 98.3282 12.9394C99.8362 14.5254 100.59 16.7484 100.59 19.6084C100.59 21.6364 100.2 23.4174 99.4202 24.9514C98.6402 26.4594 97.5222 27.6294 96.0662 28.4614C94.6102 29.2674 92.9202 29.6704 90.9962 29.6704ZM91.6592 26.1994C92.5952 26.1994 93.2712 25.8354 93.6872 25.1074C94.1292 24.3794 94.3502 23.1964 94.3502 21.5584C94.3502 19.0884 94.0902 17.2944 93.5702 16.1764C93.0762 15.0324 92.3092 14.4604 91.2692 14.4604C90.3332 14.4604 89.6442 14.8244 89.2022 15.5524C88.7862 16.2804 88.5782 17.4374 88.5782 19.0234C88.5782 21.5454 88.8252 23.3784 89.3192 24.5224C89.8392 25.6404 90.6192 26.1994 91.6592 26.1994ZM103.217 26.5504C103.971 26.4984 104.491 26.3034 104.777 25.9654C105.063 25.6274 105.206 25.0294 105.206 24.1714V16.8394C105.206 15.9294 105.089 15.3184 104.855 15.0064C104.621 14.6944 104.153 14.5384 103.451 14.5384L102.749 14.5774L102.554 14.3044L102.827 11.9254C104.439 11.6914 106.051 11.4314 107.663 11.1454C109.301 10.8334 110.354 10.6384 110.822 10.5604L111.251 10.9504C111.199 11.1584 111.108 11.6264 110.978 12.3544C110.874 13.0564 110.809 13.7454 110.783 14.4214L111.056 14.5774C111.888 13.3814 112.772 12.4714 113.708 11.8474C114.644 11.1974 115.593 10.8724 116.555 10.8724C116.841 10.8724 117.127 10.8984 117.413 10.9504C117.699 10.9764 117.881 11.0024 117.959 11.0284L118.115 11.3794C118.037 11.8734 117.894 12.9394 117.686 14.5774C117.478 16.2154 117.335 17.7754 117.257 19.2574L114.254 19.4524C114.254 18.1264 114.176 17.2424 114.02 16.8004C113.864 16.3584 113.565 16.1374 113.123 16.1374C112.785 16.1374 112.434 16.2544 112.07 16.4884C111.706 16.6964 111.355 16.9954 111.017 17.3854C110.965 18.0874 110.887 19.2444 110.783 20.8564C110.705 22.4684 110.653 23.7424 110.627 24.6784C110.627 25.2504 110.731 25.6534 110.939 25.8874C111.147 26.1214 111.498 26.2384 111.992 26.2384C112.434 26.2384 112.85 26.2254 113.24 26.1994C113.656 26.1474 113.929 26.1084 114.059 26.0824L114.215 26.3554L113.747 29.3974C113.357 29.3714 112.525 29.3324 111.251 29.2804C110.003 29.2284 108.963 29.2024 108.131 29.2024C107.117 29.2024 106.064 29.2284 104.972 29.2804C103.88 29.3324 103.165 29.3714 102.827 29.3974L103.217 26.5504ZM125.01 29.6704C124.048 29.6704 123.151 29.5794 122.319 29.3974C121.513 29.2414 120.876 29.0724 120.408 28.8904C119.94 28.6824 119.641 28.5524 119.511 28.5004L119.199 28.0324C119.329 27.1744 119.524 25.4844 119.784 22.9624L122.358 22.7284C122.384 23.8464 122.683 24.7174 123.255 25.3414C123.827 25.9654 124.62 26.2774 125.634 26.2774C126.258 26.2774 126.765 26.1474 127.155 25.8874C127.571 25.6274 127.779 25.2894 127.779 24.8734C127.779 24.4054 127.545 24.0024 127.077 23.6644C126.609 23.3004 125.647 22.7804 124.191 22.1044C122.605 21.4284 121.448 20.6614 120.72 19.8034C120.018 18.9454 119.667 17.9314 119.667 16.7614C119.667 15.5394 120.018 14.4604 120.72 13.5244C121.448 12.5884 122.449 11.8604 123.723 11.3404C125.023 10.8204 126.505 10.5604 128.169 10.5604C128.975 10.5604 129.716 10.6124 130.392 10.7164C131.094 10.8204 131.64 10.9374 132.03 11.0674C132.42 11.1714 132.667 11.2494 132.771 11.3014L133.044 11.8084C132.992 12.0944 132.875 12.7574 132.693 13.7974C132.537 14.8374 132.407 15.9034 132.303 16.9954L129.69 17.1514L129.729 16.6834C129.703 15.7994 129.495 15.1494 129.105 14.7334C128.715 14.2914 128.104 14.0704 127.272 14.0704C126.674 14.0704 126.18 14.2004 125.79 14.4604C125.426 14.7204 125.244 15.0714 125.244 15.5134C125.244 15.9554 125.426 16.3584 125.79 16.7224C126.154 17.0604 126.739 17.4114 127.545 17.7754C129.131 18.4774 130.34 19.1274 131.172 19.7254C132.004 20.2974 132.589 20.8954 132.927 21.5194C133.265 22.1174 133.434 22.8454 133.434 23.7034C133.434 24.8214 133.07 25.8354 132.342 26.7454C131.614 27.6554 130.6 28.3704 129.3 28.8904C128.026 29.4104 126.596 29.6704 125.01 29.6704ZM142.102 26.6284C143.194 26.4204 143.909 26.1084 144.247 25.6924C144.611 25.2504 144.793 24.4834 144.793 23.3914L144.832 9.00039C144.832 8.19439 144.741 7.66139 144.559 7.40139C144.377 7.11539 144 6.97239 143.428 6.97239C143.064 6.97239 142.7 6.99839 142.336 7.05039L142.063 6.62139L142.375 4.04739L147.172 4.08639C147.458 4.08639 148.927 4.03439 151.579 3.93039C152.047 3.93039 152.801 3.90439 153.841 3.85239L153.607 6.81639C152.957 6.92039 152.489 7.05039 152.203 7.20639C151.917 7.36239 151.709 7.59639 151.579 7.90839C151.475 8.19439 151.41 8.66239 151.384 9.31239L151.15 14.4994L155.44 14.6164C156.714 14.6164 158.066 14.5384 159.496 14.3824V9.00039C159.496 8.19439 159.405 7.66139 159.223 7.40139C159.041 7.11539 158.664 6.97239 158.092 6.97239C157.754 6.97239 157.377 6.99839 156.961 7.05039L156.688 6.62139L157 4.04739L162.538 4.08639C163.162 4.08639 164.254 4.04739 165.814 3.96939L168.739 3.85239L168.505 6.77739C167.569 6.90739 166.945 7.11539 166.633 7.40139C166.347 7.66139 166.178 8.16839 166.126 8.92239C165.996 10.8464 165.879 13.1864 165.775 15.9424C165.697 18.6724 165.658 21.1164 165.658 23.2744C165.658 24.4184 165.762 25.2114 165.97 25.6534C166.204 26.0694 166.633 26.2774 167.257 26.2774C167.569 26.2774 167.998 26.2384 168.544 26.1604L168.778 26.5114L168.427 29.2804C166.347 29.2284 164.319 29.2024 162.343 29.2024L156.454 29.2414L156.805 26.3554C157.819 26.3294 158.521 26.0824 158.911 25.6144C159.301 25.1464 159.496 24.2884 159.496 23.0404V18.4774L156.064 18.4384C155.18 18.4384 153.503 18.5554 151.033 18.7894L150.994 23.6254C150.994 24.7174 151.085 25.4454 151.267 25.8094C151.449 26.1474 151.826 26.3164 152.398 26.3164C152.918 26.3164 153.334 26.2774 153.646 26.1994L153.88 26.5114L153.529 29.3584C151.657 29.2544 149.863 29.2024 148.147 29.2024C146.899 29.2024 144.793 29.2934 141.829 29.4754L142.102 26.6284ZM184.357 29.6704C183.135 29.6704 182.173 29.4234 181.471 28.9294C180.769 28.4354 180.366 27.7074 180.262 26.7454L179.872 26.5894C179.066 27.3954 178.26 28.0844 177.454 28.6564C176.674 29.2284 176.037 29.5144 175.543 29.5144C174.529 29.5144 173.593 29.2544 172.735 28.7344C171.903 28.1884 171.24 27.4474 170.746 26.5114C170.278 25.5754 170.044 24.5484 170.044 23.4304C170.044 22.5984 170.265 21.8834 170.707 21.2854C171.149 20.6614 171.721 20.2714 172.423 20.1154L179.989 18.5164V17.9704C179.989 16.9564 179.703 16.1764 179.131 15.6304C178.559 15.0584 177.753 14.7724 176.713 14.7724C176.037 14.7724 175.283 14.9544 174.451 15.3184C173.619 15.6564 172.865 16.0594 172.189 16.5274L171.799 16.3324L170.98 13.6414C172.41 12.8614 173.866 12.1594 175.348 11.5354C176.83 10.8854 177.896 10.5604 178.546 10.5604C180.99 10.5604 182.771 11.0674 183.889 12.0814C185.033 13.0954 185.605 14.4084 185.605 16.0204C185.605 16.3844 185.475 17.5804 185.215 19.6084C185.189 19.9204 185.111 20.5574 184.981 21.5194C184.851 22.4814 184.786 23.1574 184.786 23.5474C184.786 23.9894 184.903 24.3534 185.137 24.6394C185.371 24.8994 185.683 25.0294 186.073 25.0294C186.567 25.0294 187.113 24.8604 187.711 24.5224L188.335 25.4194C187.815 26.3814 187.178 27.2914 186.424 28.1494C185.67 29.0074 184.981 29.5144 184.357 29.6704ZM177.415 25.2244C177.753 25.2244 178.143 25.1594 178.585 25.0294C179.053 24.8734 179.469 24.6914 179.833 24.4834L179.911 20.9734L176.362 21.8704C176.05 21.9484 175.829 22.0784 175.699 22.2604C175.569 22.4164 175.504 22.6504 175.504 22.9624C175.504 23.6124 175.673 24.1584 176.011 24.6004C176.375 25.0164 176.843 25.2244 177.415 25.2244ZM193.619 29.7484C193.307 28.5524 192.696 26.2124 191.786 22.7284C190.876 19.2444 190.252 16.9304 189.914 15.7864C189.498 14.5124 188.718 13.8624 187.574 13.8364L187.496 13.6414L187.769 10.9504C188.055 10.9504 188.575 10.9634 189.329 10.9894C190.109 11.0154 190.902 11.0284 191.708 11.0284C192.826 11.0284 193.957 10.9894 195.101 10.9114C196.245 10.8334 196.986 10.7814 197.324 10.7554L197.402 10.9504L197.051 13.7194C196.297 13.8234 195.816 13.9274 195.608 14.0314C195.426 14.1354 195.335 14.3694 195.335 14.7334C195.335 15.1494 195.608 16.6184 196.154 19.1404C196.7 21.6624 197.077 23.3654 197.285 24.2494H197.792C199.716 18.5554 200.678 15.3314 200.678 14.5774C200.678 14.2914 200.6 14.1094 200.444 14.0314C200.314 13.9274 200.028 13.8754 199.586 13.8754H198.689L198.533 13.6024L198.884 10.9504C199.17 10.9504 199.729 10.9634 200.561 10.9894C201.419 11.0154 202.316 11.0284 203.252 11.0284L206.996 10.9894L206.645 13.8364C206.047 13.9144 205.631 14.0704 205.397 14.3044C205.189 14.5124 204.942 15.0064 204.656 15.7864L200.132 29.2024L193.619 29.7484ZM216.076 29.6704C213.19 29.6704 210.941 28.8644 209.329 27.2524C207.743 25.6144 206.95 23.3524 206.95 20.4664C206.95 18.5684 207.353 16.8654 208.159 15.3574C208.965 13.8494 210.083 12.6794 211.513 11.8474C212.969 10.9894 214.62 10.5604 216.466 10.5604C221.094 10.5604 223.408 12.9394 223.408 17.6974C223.408 18.5034 223.317 19.2964 223.135 20.0764L222.667 20.5054H212.956C213.008 22.0654 213.424 23.2614 214.204 24.0934C215.01 24.8994 216.102 25.3024 217.48 25.3024C218.858 25.3024 220.379 24.9254 222.043 24.1714L222.394 24.3274L223.096 26.6674C222.108 27.4214 220.951 28.1104 219.625 28.7344C218.299 29.3584 217.116 29.6704 216.076 29.6704ZM217.285 17.7364C217.545 17.6844 217.714 17.6194 217.792 17.5414C217.87 17.4374 217.909 17.2294 217.909 16.9174C217.909 15.0974 217.207 14.1874 215.803 14.1874C213.957 14.1874 212.982 15.4614 212.878 18.0094L217.285 17.7364ZM236.735 26.5894C237.307 26.4594 237.71 26.2514 237.944 25.9654C238.204 25.6534 238.347 25.1854 238.373 24.5614L238.451 18.3994C238.477 17.3074 238.308 16.5274 237.944 16.0594C237.606 15.5654 237.06 15.3184 236.306 15.3184C235.578 15.3184 234.681 15.7084 233.615 16.4884L233.498 18.9064C233.29 22.2864 233.186 24.2624 233.186 24.8344C233.186 25.4064 233.264 25.8094 233.42 26.0434C233.576 26.2514 233.862 26.3554 234.278 26.3554L235.136 26.3164L235.214 26.5114L234.785 29.3584C234.473 29.3324 233.888 29.2934 233.03 29.2414C232.172 29.2154 231.301 29.2024 230.417 29.2024C229.481 29.2024 228.48 29.2284 227.414 29.2804C226.374 29.3324 225.698 29.3714 225.386 29.3974L225.776 26.5504C226.53 26.4984 227.05 26.3164 227.336 26.0044C227.622 25.6924 227.765 25.1724 227.765 24.4444V16.8784C227.765 15.9684 227.635 15.3574 227.375 15.0454C227.141 14.7334 226.647 14.5774 225.893 14.5774H225.308L225.152 14.3434L225.425 11.8864C227.063 11.6524 228.688 11.3924 230.3 11.1064C231.938 10.8204 232.991 10.6384 233.459 10.5604L233.888 10.9894C233.836 11.1454 233.758 11.5094 233.654 12.0814C233.55 12.6274 233.472 13.1734 233.42 13.7194L233.615 13.8754C234.473 13.0694 235.37 12.3154 236.306 11.6134C237.242 10.9114 237.905 10.5604 238.295 10.5604C240.271 10.5604 241.779 11.0024 242.819 11.8864C243.885 12.7704 244.418 14.0184 244.418 15.6304C244.418 16.3584 244.301 17.8014 244.067 19.9594C243.807 22.5594 243.677 24.1714 243.677 24.7954C243.677 25.3934 243.755 25.8224 243.911 26.0824C244.093 26.3164 244.392 26.4334 244.808 26.4334L245.9 26.3944L245.978 26.5504L245.588 29.3584C245.25 29.3324 244.626 29.2934 243.716 29.2414C242.832 29.2154 241.935 29.2024 241.025 29.2024C240.401 29.2024 239.569 29.2284 238.529 29.2804C237.489 29.3584 236.8 29.4104 236.462 29.4364L236.735 26.5894Z" fill="black"/>
</svg>
