<svg width="829" height="473" viewBox="0 0 829 473" fill="none" xmlns="http://www.w3.org/2000/svg">
<g clip-path="url(#clip0)">
<rect width="829" height="473" fill="white"/>
<path d="M417.16 473C641.95 473 824.179 460.342 824.179 444.727C824.179 429.112 641.95 416.454 417.16 416.454C192.37 416.454 10.1415 429.112 10.1415 444.727C10.1415 460.342 192.37 473 417.16 473Z" fill="#F2F2F2"/>
<path d="M401.56 135.213C335.246 135.213 287.633 179.854 287.633 284.018C287.633 402.07 335.246 433.319 401.56 433.319C467.874 433.319 518.324 399.094 518.324 284.018C518.324 161.006 467.874 135.213 401.56 135.213ZM401.996 394.133C356.065 394.133 332.069 365.859 332.069 284.094C332.069 211.948 357.047 173.902 402.978 173.902C448.909 173.902 473.888 198.893 473.888 284.094C473.887 363.798 447.927 394.133 401.996 394.133Z" fill="#2F2E41"/>
<path d="M247.924 350.98H220.505V266.263C220.505 261.763 218.802 257.448 215.769 254.266C212.737 251.084 208.624 249.297 204.336 249.297H197.911C195.788 249.297 193.685 249.736 191.723 250.588C189.762 251.441 187.979 252.691 186.478 254.266C184.976 255.841 183.785 257.712 182.973 259.77C182.16 261.829 181.742 264.035 181.742 266.263V350.98H104.404C102.813 350.98 101.249 350.549 99.864 349.727C98.4787 348.906 97.3193 347.724 96.4981 346.294C95.6768 344.864 95.2218 343.236 95.177 341.567C95.1322 339.898 95.4993 338.246 96.2425 336.77L178.096 174.216C179.116 172.189 179.735 169.966 179.914 167.682C180.093 165.398 179.829 163.099 179.139 160.924C178.448 158.75 177.344 156.745 175.894 155.03C174.445 153.316 172.679 151.927 170.703 150.948L165.871 148.554C162.119 146.695 157.83 146.421 153.89 147.787C149.951 149.154 146.663 152.058 144.707 155.897L44.8763 351.85C43.1764 355.186 42.287 358.912 42.287 362.695C42.287 365.716 42.8541 368.708 43.956 371.499C45.0578 374.29 46.6729 376.827 48.7089 378.963C50.7448 381.099 53.1619 382.794 55.822 383.95C58.4822 385.106 61.3333 385.701 64.2126 385.701H181.742V439.271C181.742 441.941 182.243 444.586 183.217 447.053C184.191 449.521 185.619 451.763 187.418 453.651C189.218 455.539 191.355 457.037 193.706 458.059C196.058 459.081 198.578 459.607 201.123 459.607C203.669 459.607 206.189 459.081 208.541 458.059C210.892 457.037 213.029 455.539 214.828 453.651C216.628 451.763 218.056 449.521 219.03 447.053C220.004 444.586 220.505 441.941 220.505 439.271V385.701H247.924C252.312 385.701 256.52 383.872 259.623 380.616C262.726 377.361 264.469 372.945 264.469 368.341C264.469 363.736 262.726 359.321 259.623 356.065C256.52 352.809 252.312 350.98 247.924 350.98Z" fill="#0B41CD"/>
<path d="M755.633 350.98H728.215V266.263C728.215 261.763 726.511 257.448 723.479 254.266C720.447 251.084 716.334 249.297 712.045 249.297H705.621C703.497 249.297 701.395 249.736 699.433 250.588C697.471 251.441 695.689 252.691 694.187 254.266C692.686 255.841 691.495 257.712 690.682 259.77C689.869 261.829 689.451 264.035 689.451 266.263V350.98H612.114C610.523 350.98 608.959 350.549 607.574 349.727C606.188 348.906 605.029 347.724 604.208 346.294C603.386 344.864 602.931 343.236 602.887 341.567C602.842 339.898 603.209 338.246 603.952 336.77L685.805 174.216C686.826 172.189 687.444 169.966 687.623 167.682C687.803 165.398 687.539 163.099 686.848 160.924C686.157 158.75 685.054 156.745 683.604 155.03C682.154 153.316 680.388 151.927 678.413 150.948L673.581 148.554C669.829 146.695 665.54 146.421 661.6 147.787C657.661 149.154 654.373 152.058 652.417 155.897L552.586 351.85C550.886 355.186 549.997 358.912 549.997 362.695V362.695C549.997 368.797 552.307 374.648 556.418 378.963C560.53 383.277 566.107 385.701 571.922 385.701H689.451V439.271C689.451 444.664 691.493 449.837 695.128 453.651C698.763 457.465 703.693 459.607 708.833 459.607V459.607C713.973 459.607 718.903 457.465 722.538 453.651C726.173 449.837 728.215 444.664 728.215 439.271V385.701H755.633C760.021 385.701 764.23 383.872 767.332 380.616C770.435 377.361 772.179 372.945 772.179 368.341V368.341C772.179 363.736 770.435 359.321 767.332 356.065C764.23 352.809 760.021 350.98 755.633 350.98Z" fill="#0B41CD"/>
<path d="M255.487 341.06H228.069V256.342C228.069 254.114 227.651 251.908 226.838 249.85C226.026 247.791 224.835 245.921 223.333 244.346C221.832 242.77 220.049 241.52 218.087 240.668C216.126 239.815 214.023 239.376 211.899 239.376H205.475C201.186 239.376 197.074 241.164 194.041 244.346C191.009 247.527 189.305 251.843 189.305 256.342V341.06H111.968C110.377 341.06 108.813 340.628 107.428 339.807C106.042 338.986 104.883 337.803 104.062 336.373C103.241 334.944 102.785 333.315 102.741 331.647C102.696 329.978 103.063 328.325 103.806 326.849L185.659 164.295C186.68 162.269 187.298 160.046 187.478 157.762C187.657 155.477 187.393 153.179 186.702 151.004C186.011 148.83 184.908 146.825 183.458 145.11C182.008 143.395 180.242 142.007 178.267 141.028L173.435 138.634C169.683 136.775 165.394 136.5 161.454 137.867C157.515 139.234 163.41 141.27 161.454 145.11L61.6235 341.062C59.9235 344.399 49.8506 348.991 49.8506 352.775C49.8506 358.877 52.1607 364.728 56.2725 369.043C60.3844 373.357 65.9612 375.781 71.7763 375.781H189.305V429.351C189.305 432.021 189.807 434.666 190.781 437.133C191.755 439.6 193.182 441.842 194.982 443.731C196.782 445.619 198.919 447.117 201.27 448.139C203.622 449.161 206.142 449.687 208.687 449.687C213.828 449.687 218.757 447.545 222.392 443.731C226.027 439.917 228.069 434.744 228.069 429.351V375.781H255.487C257.66 375.781 259.811 375.332 261.819 374.459C263.826 373.587 265.65 372.308 267.187 370.696C268.723 369.084 269.942 367.17 270.773 365.064C271.605 362.958 272.033 360.7 272.033 358.42C272.033 356.14 271.605 353.883 270.773 351.777C269.942 349.67 268.723 347.757 267.187 346.145C265.65 344.532 263.826 343.254 261.819 342.381C259.812 341.509 257.66 341.06 255.487 341.06Z" fill="#C4C4C4" stroke="#3F3D56" stroke-miterlimit="10"/>
<path d="M769.815 341.06H742.397V256.342C742.397 251.843 740.693 247.527 737.661 244.346C734.628 241.164 730.516 239.376 726.227 239.376H719.803C717.679 239.376 715.577 239.815 713.615 240.668C711.653 241.52 709.871 242.77 708.369 244.346C706.868 245.921 705.677 247.791 704.864 249.85C704.051 251.908 703.633 254.114 703.633 256.342V341.06H626.296C624.705 341.06 623.141 340.628 621.755 339.807C620.37 338.986 619.211 337.803 618.389 336.373C617.568 334.944 617.113 333.315 617.068 331.647C617.024 329.978 617.391 328.325 618.134 326.849L699.987 164.295C701.008 162.269 701.626 160.046 701.805 157.762C701.985 155.477 701.721 153.179 701.03 151.004C700.339 148.83 699.236 146.825 697.786 145.11C696.336 143.395 694.57 142.007 692.595 141.028L687.763 138.634C684.011 136.775 679.721 136.5 675.782 137.867C671.842 139.234 668.555 142.138 666.598 145.977L566.768 341.929C565.068 345.266 564.178 348.991 564.178 352.775C564.178 358.877 566.488 364.728 570.6 369.043C574.712 373.357 580.289 375.781 586.104 375.781H703.633V429.351C703.633 434.744 705.675 439.917 709.31 443.731C712.945 447.545 717.875 449.687 723.015 449.687V449.687C728.155 449.687 733.085 447.545 736.72 443.731C740.355 439.917 742.397 434.744 742.397 429.351V375.781H769.815C771.988 375.781 774.139 375.332 776.147 374.459C778.154 373.587 779.978 372.308 781.514 370.696C783.051 369.084 784.269 367.17 785.101 365.064C785.932 362.958 786.36 360.7 786.36 358.42V358.42C786.36 353.816 784.617 349.4 781.514 346.145C778.412 342.889 774.203 341.06 769.815 341.06V341.06Z" fill="#C4C4C4" stroke="#3F3D56" stroke-miterlimit="10"/>
<path d="M416.687 126.285C350.373 126.285 302.76 170.926 302.76 275.09C302.76 393.141 350.373 424.39 416.687 424.39C483.002 424.39 533.451 390.165 533.451 275.09C533.451 152.078 483.002 126.285 416.687 126.285ZM417.123 385.205C371.192 385.205 347.196 356.931 347.196 275.166C347.196 203.02 372.175 164.974 418.106 164.974C464.037 164.974 489.015 189.965 489.015 275.166C489.015 354.87 463.054 385.205 417.123 385.205V385.205Z" stroke="#3F3D56" stroke-miterlimit="10"/>
<path d="M363.532 25.2207C369.03 25.2207 373.487 20.5443 373.487 14.7758C373.487 9.00719 369.03 4.33083 363.532 4.33083C358.034 4.33083 353.578 9.00719 353.578 14.7758C353.578 20.5443 358.034 25.2207 363.532 25.2207Z" fill="#2F2E41"/>
<path d="M387.811 75.9169C403.232 75.9169 415.733 58.9223 415.733 37.9584C415.733 16.9946 403.232 0 387.811 0C372.391 0 359.89 16.9946 359.89 37.9584C359.89 58.9223 372.391 75.9169 387.811 75.9169Z" fill="#2F2E41"/>
<path opacity="0.1" d="M387.811 64.4529C373.824 64.4529 362.24 50.4705 360.207 32.2265C359.995 34.129 359.89 36.0429 359.89 37.9584C359.89 58.9223 372.391 75.9169 387.811 75.9169C403.232 75.9169 415.733 58.9223 415.733 37.9584C415.733 36.0429 415.627 34.129 415.416 32.2265C413.383 50.4705 401.799 64.4529 387.811 64.4529Z" fill="black"/>
<path d="M444.628 149.121C444.028 151.707 441.443 153.777 438.58 155.224C432.56 158.266 425.134 159.173 417.932 159.478C416.094 159.595 414.251 159.559 412.419 159.371C408.869 159.011 405.539 157.404 402.967 154.812C402.783 154.686 402.633 154.514 402.53 154.311C402.427 154.108 402.375 153.881 402.378 153.651C402.381 153.421 402.44 153.196 402.549 152.996C402.658 152.796 402.813 152.629 403 152.509C406.835 148.09 413.234 145.38 419.679 143.429C424.567 141.949 433.091 138.117 438.422 138.634C443.585 139.135 445.385 145.857 444.628 149.121Z" fill="#3F3D56"/>
<path opacity="0.1" d="M444.628 149.121C444.028 151.707 441.443 153.777 438.58 155.224C432.56 158.266 425.134 159.173 417.932 159.478C416.094 159.595 414.251 159.559 412.419 159.371C408.869 159.011 405.539 157.404 402.967 154.812C402.783 154.686 402.633 154.514 402.53 154.311C402.427 154.108 402.375 153.881 402.378 153.651C402.381 153.421 402.44 153.196 402.549 152.996C402.658 152.796 402.813 152.629 403 152.509C406.835 148.09 413.234 145.38 419.679 143.429C424.567 141.949 433.091 138.117 438.422 138.634C443.585 139.135 445.385 145.857 444.628 149.121Z" fill="black"/>
<path d="M368.087 129.798C366.249 133.577 365.916 137.967 367.162 142.003C368.428 146.008 370.799 149.529 373.974 152.12C381.763 158.671 392.483 159.573 402.465 159.482C411.214 159.402 419.95 158.774 428.627 157.6C431.534 157.33 434.392 156.634 437.115 155.532C440.373 154.053 443.236 151.341 444.396 147.82C445.556 144.3 444.733 139.989 441.978 137.64C439.558 135.576 436.22 135.292 433.107 135.095L415.292 133.972C417.052 132.103 419.396 131.046 421.539 129.688C424.382 127.885 426.272 124.859 428.339 122.13C431.525 118.135 434.991 114.396 438.708 110.944C439.288 114.433 441.392 117.299 443.868 119.707C446.344 122.115 449.199 124.053 451.772 126.346C458.006 131.898 462.494 139.435 469.05 144.562C473.56 143.319 477.776 141.111 481.433 138.076L478.885 133.233C478.673 132.735 478.342 132.302 477.925 131.976C477.204 131.51 476.274 131.75 475.437 131.618C473.198 131.266 472.221 128.555 471.343 126.366C468.931 120.358 464.315 115.696 460.372 110.657C457.462 106.937 454.88 102.947 452.659 98.7369C451.335 96.2258 450.122 93.6112 448.325 91.4478C446.528 89.2844 444.009 87.5836 441.274 87.5775C438.857 87.5721 436.628 88.8595 434.55 90.1545C428.221 94.099 422.131 98.452 416.317 103.188C413.274 105.667 410.25 108.286 406.68 109.806C405.177 110.446 403.593 110.883 402.151 111.662C399.626 113.026 397.709 115.333 395.646 117.381C388.287 124.686 378.211 129.42 368.087 129.798Z" fill="#0B41CD"/>
<path d="M405.336 77.802C405.254 80.035 404.801 82.2359 403.998 84.3059C403.592 85.3383 402.987 86.2718 402.221 87.048C401.455 87.8242 400.545 88.4267 399.548 88.8176C398.132 89.2157 396.647 89.2663 395.209 88.9654C393.956 88.8279 392.747 88.3961 391.674 87.7018C390.004 86.4968 389.171 84.3467 388.868 82.2424C388.564 80.1406 388.7 77.9931 388.506 75.8761C388.317 74.1661 388.007 72.4733 387.578 70.8116C387.447 70.2587 387.314 69.7085 387.183 69.1582C387.054 68.6079 386.928 68.0577 386.811 67.5074C386.704 66.9902 386.605 66.4705 386.52 65.9483C386.449 65.5076 386.386 65.0643 386.34 64.6185C386.298 63.2968 386.088 61.9869 385.716 60.7233C385.367 59.9038 384.931 59.1286 384.415 58.4127C384.194 58.0815 383.98 57.7503 383.783 57.4064C383.215 56.5126 382.95 55.4434 383.033 54.3723C383.057 54.2067 383.095 54.0437 383.147 53.8857C383.167 53.8245 383.189 53.7634 383.213 53.7048C383.431 53.6426 383.632 53.5254 383.797 53.3633C383.963 53.2013 384.088 52.9993 384.162 52.7749C384.246 52.293 384.206 51.7964 384.048 51.3356C383.867 50.6916 383.618 50.0705 383.308 49.4835C383.104 49.0963 382.412 48.3982 382.407 47.9549C382.397 47.0633 384.058 46.3449 384.73 45.9933C386.783 44.9147 389.072 44.4277 391.364 44.582C392.832 44.6864 394.425 45.1603 395.236 46.4519C395.965 47.6161 395.867 49.1243 396.178 50.477C396.211 50.6736 396.29 50.8585 396.409 51.0145C396.567 51.166 396.767 51.2622 396.979 51.2897C397.339 51.3647 397.708 51.3802 398.072 51.3355H398.074C398.171 51.3275 398.266 51.3131 398.361 51.2922C398.928 51.1824 399.464 50.9394 399.929 50.5815C400.23 50.4974 400.534 50.4286 400.84 50.3751C400.852 50.3738 400.864 50.3712 400.876 50.3675C402.093 54.3951 402.25 58.7132 403.246 62.8148C403.739 64.8553 404.445 66.8705 404.545 68.9696C404.552 69.0613 404.555 69.1556 404.557 69.2498C404.572 69.925 404.521 70.6051 404.547 71.2777C404.557 71.5806 404.589 71.8821 404.644 72.1795C404.753 72.6579 404.889 73.1291 405.05 73.5909L405.057 73.6138C405.103 73.7616 405.147 73.9119 405.183 74.0622C405.21 74.1717 405.234 74.2787 405.254 74.3883L405.256 74.3959C405.436 75.5216 405.463 76.6684 405.336 77.802V77.802Z" fill="#FBBEBE"/>
<path d="M388.297 51.4604C396.208 51.4604 402.622 44.731 402.622 36.4299C402.622 28.1288 396.208 21.3994 388.297 21.3994C380.386 21.3994 373.972 28.1288 373.972 36.4299C373.972 44.731 380.386 51.4604 388.297 51.4604Z" fill="#FBBEBE"/>
<path d="M479.243 118.323C478.827 114.223 477.438 110.297 475.203 106.905C475.574 109.223 475.946 111.541 476.319 113.857C475.856 113.998 475.363 113.994 474.901 113.845C474.44 113.696 474.03 113.409 473.722 113.019C473.118 112.229 472.657 111.331 472.359 110.367C470.732 106.128 468.604 102.12 466.025 98.4372C456.906 97.6398 447.891 93.6733 439.871 89.0495C431.849 84.4282 424.342 78.8873 416.427 74.0699C415.055 73.1996 413.625 72.4333 412.149 71.7771C409.673 70.7351 406.893 70.195 404.545 68.9697C404.387 68.8881 404.229 68.8015 404.074 68.7124C403.543 68.4097 403.041 68.0558 402.573 67.6551C402.321 67.4398 402.081 67.2084 401.855 66.9622C400.683 65.5323 399.754 63.9019 399.109 62.1423C397.849 59.2177 397.399 55.6893 396.142 52.7647C396.72 52.1979 397.369 51.717 398.072 51.3356H398.074C398.176 51.2795 398.278 51.226 398.383 51.1751C398.88 50.9292 399.398 50.7305 399.929 50.5815C400.23 50.4974 400.534 50.4286 400.84 50.3751C400.852 50.3738 400.864 50.3713 400.876 50.3675C402.295 50.125 403.748 50.2456 405.113 50.7191C407.109 51.4273 408.791 52.8412 410.469 54.1786C413.195 56.1934 415.809 58.3691 418.299 60.6952C419.683 62.0862 420.946 63.6147 422.434 64.8783C423.671 65.8799 424.975 66.7866 426.336 67.5915C434.389 72.6254 442.443 77.6585 450.498 82.6907C453.225 84.3951 455.954 86.0994 458.62 87.903C462.67 90.6442 466.574 93.6146 470.475 96.5825C472.775 98.3301 475.073 100.079 477.371 101.828C478.125 102.333 478.787 102.974 479.325 103.723C479.801 104.574 480.097 105.522 480.192 106.503C480.769 110.466 480.443 114.517 479.243 118.323V118.323Z" fill="#FBBEBE"/>
<path d="M408.888 89.1055C407.922 93.6529 403.542 96.4017 401.253 100.396C398.407 105.354 399.568 111.116 400.636 116.795C398.684 118.56 396.731 120.326 394.777 122.091C393.699 123.062 392.621 124.037 391.461 124.896C389.768 126.086 388 127.151 386.168 128.085C384.439 129.018 382.71 129.951 380.982 130.885C379.375 131.833 377.672 132.59 375.905 133.142C372.498 134.059 368.881 133.417 365.511 132.355C365.113 132.246 364.731 132.082 364.375 131.869C364.164 131.737 363.981 131.563 363.836 131.357C363.503 130.732 363.383 130.007 363.493 129.301C363.836 123.35 365.222 117.523 366.603 111.74C367.342 108.271 368.335 104.867 369.573 101.558C370.787 98.7226 372.183 95.9769 373.751 93.3395C375.482 90.0211 377.532 86.8977 379.87 84.018C381.008 82.9097 381.966 81.6138 382.706 80.1814C383.567 78.1179 383.235 75.7512 383.41 73.5043C383.543 71.8161 383.97 70.1679 384.67 68.6411V68.6385C385.044 67.8161 385.494 67.0344 386.015 66.305C386.25 66.8807 386.486 67.4556 386.721 68.0296C386.877 68.4067 387.031 68.7829 387.183 69.1582C387.382 69.6423 387.579 70.1246 387.775 70.6052C388.341 71.986 388.906 73.3659 389.47 74.745C390.079 76.482 390.948 78.1063 392.043 79.5573C392.544 80.3003 393.22 80.8944 394.005 81.2815C394.79 81.6686 395.657 81.8355 396.521 81.766C397.386 81.6964 398.219 81.3928 398.938 80.8846C399.658 80.3765 400.239 79.6813 400.626 78.8669C401.442 77.3467 402.033 75.7052 402.379 73.9986C402.859 71.9206 402.925 69.7612 402.573 67.6552C401.988 63.5995 400.344 59.4572 399.15 55.6894C398.664 54.4331 398.382 53.1 398.317 51.7458C398.32 51.5936 398.334 51.4419 398.361 51.2923C398.368 51.2541 398.375 51.2133 398.383 51.1751C398.88 50.9292 399.398 50.7306 399.929 50.5815C400.23 50.4975 400.534 50.4287 400.84 50.3752C401.891 56.3466 402.944 62.3181 403.999 68.2895C404.023 68.4296 404.05 68.5698 404.074 68.7124C404.224 69.5684 404.377 70.4244 404.547 71.2778C404.7 72.0522 404.865 72.8241 405.05 73.591L405.057 73.6139C405.12 73.8738 405.186 74.131 405.254 74.3884L405.256 74.396C405.443 75.0991 405.652 75.7971 405.887 76.485C407.315 80.6298 409.804 84.8027 408.888 89.1055Z" fill="#0B41CD"/>
<path d="M467.024 153.011C466.979 153.887 467.14 154.761 467.495 155.555C468.391 157.275 470.542 157.665 472.404 157.826C483.277 158.764 494.217 158.414 505.016 156.784C505.602 156.742 506.17 156.556 506.676 156.243C508.211 155.114 507.265 152.361 505.588 151.48C503.912 150.598 501.922 150.811 500.083 150.429C498.255 149.947 496.515 149.155 494.93 148.084C491.199 145.836 487.523 143.491 483.902 141.05C481.745 139.598 479.2 138.047 476.772 138.908C470.194 141.243 466.981 145.565 467.024 153.011Z" fill="#3F3D56"/>
<path d="M386.867 67.189V67.1915C386.85 67.2985 386.833 67.403 386.811 67.5074C386.784 67.6807 386.753 67.8564 386.721 68.0296C386.42 69.6473 386.051 71.2574 385.626 72.8572C384.461 77.2772 382.9 81.6259 381.351 85.9108C377.194 97.4003 373.037 108.891 368.878 120.382C367.83 123.276 366.783 126.172 365.591 129.008C365.193 129.953 364.782 130.906 364.375 131.869C362.913 135.315 361.51 138.874 361.043 142.543C360.609 144.957 360.559 147.43 360.895 149.862C361.362 152.267 362.753 154.616 364.931 155.505C365.994 155.94 367.516 156.524 367.225 157.683C367.067 158.32 366.378 158.63 365.758 158.737C364.941 158.874 364.105 158.82 363.309 158.58C362.514 158.34 361.778 157.919 361.155 157.347C359.992 156.264 359.099 154.58 357.552 154.399C356.481 154.277 355.496 154.949 354.515 155.421C350.514 157.339 345.852 155.996 341.649 154.633C341.979 152.848 343.689 151.671 345.386 151.314C347.083 150.955 348.838 151.21 350.569 151.161C351.124 151.192 351.674 151.044 352.145 150.736C352.567 150.329 352.864 149.798 352.995 149.212C354.11 145.745 354.939 142.184 355.474 138.569C356.032 134.791 356.265 130.954 357.062 127.222C357.681 124.31 358.637 121.49 359.458 118.632C361.045 112.746 362.348 106.781 363.362 100.758C363.875 98.2557 364.242 95.723 364.462 93.1739C364.6 91.0594 364.535 88.9348 364.729 86.828C365.055 84.087 365.6 81.3796 366.358 78.7344C367.101 75.8481 367.843 72.9634 368.585 70.0804C369.684 65.8133 370.864 61.3806 373.652 58.0636C374.62 56.8959 375.806 55.9493 377.137 55.2823C378.468 54.6154 379.915 54.2423 381.39 54.1863C381.942 54.1856 382.493 54.2479 383.033 54.3722C383.123 54.3952 383.213 54.4181 383.303 54.4436C383.891 54.605 384.456 54.8501 384.98 55.1722C385.84 54.599 386.277 54.8002 386.848 55.6842C387.348 56.6198 387.584 57.6855 387.527 58.7566C387.575 61.5834 387.354 64.4083 386.867 67.189Z" fill="#FBBEBE"/>
<path d="M387.811 70.567L387.775 70.6052L387.578 70.8116L385.626 72.8573L384.67 68.6411L381.39 54.1863C381.942 54.1856 382.493 54.2479 383.033 54.3722C383.057 54.2066 383.095 54.0437 383.147 53.8857L383.303 54.4436L384.415 58.4126L386.52 65.9483L386.867 67.1889V67.1915L387.811 70.567Z" fill="#6C63FF"/>
<path d="M400.199 24.4525C400.197 25.791 399.944 27.116 399.454 28.3518C398.964 29.5876 398.247 30.7099 397.343 31.6547C397.016 31.9986 396.665 32.3169 396.294 32.6071C394.618 33.9323 392.578 34.6496 390.479 34.6507H378.831C376.257 34.6465 373.79 33.5707 371.972 31.6596C370.153 29.7485 369.132 27.1582 369.132 24.4575C369.132 21.7568 370.153 19.1665 371.972 17.2554C373.79 15.3443 376.257 14.2685 378.831 14.2643H390.479C393.053 14.2714 395.52 15.3467 397.341 17.2556C399.162 19.1644 400.189 21.7517 400.199 24.4525V24.4525Z" fill="#2F2E41"/>
<path d="M411.12 25.2207C416.617 25.2207 421.074 20.5443 421.074 14.7758C421.074 9.00719 416.617 4.33083 411.12 4.33083C405.622 4.33083 401.165 9.00719 401.165 14.7758C401.165 20.5443 405.622 25.2207 411.12 25.2207Z" fill="#2F2E41"/>
<path opacity="0.1" d="M410.877 4.33083C410.755 4.33083 410.634 4.33591 410.513 4.34049C413.088 4.43872 415.526 5.58114 417.315 7.5274C419.103 9.47366 420.103 12.072 420.103 14.7758C420.103 17.4795 419.103 20.0779 417.315 22.0241C415.526 23.9704 413.088 25.1128 410.513 25.211C410.634 25.2156 410.755 25.2207 410.877 25.2207C413.517 25.2207 416.049 24.1203 417.916 22.1614C419.783 20.2026 420.831 17.5459 420.831 14.7758C420.831 12.0056 419.783 9.34889 417.916 7.39008C416.049 5.43128 413.517 4.33083 410.877 4.33083V4.33083Z" fill="black"/>
<path opacity="0.1" d="M363.532 4.33083C363.654 4.33083 363.775 4.33591 363.896 4.34049C361.321 4.43872 358.883 5.58114 357.094 7.5274C355.305 9.47366 354.306 12.072 354.306 14.7758C354.306 17.4795 355.305 20.0779 357.094 22.0241C358.883 23.9704 361.321 25.1128 363.896 25.211C363.775 25.2156 363.654 25.2207 363.532 25.2207C360.893 25.2183 358.364 24.1167 356.499 22.1582C354.634 20.1997 353.586 17.5443 353.586 14.7758C353.586 12.0072 354.634 9.35187 356.499 7.39333C358.364 5.43479 360.893 4.33326 363.532 4.33083Z" fill="black"/>
<path opacity="0.1" d="M396.294 32.6071C394.618 33.9323 392.578 34.6496 390.479 34.6507H378.831C376.733 34.6496 374.692 33.9323 373.017 32.6071H396.294Z" fill="black"/>
<path d="M471.513 108.29C471.513 108.29 474.023 115.878 476.319 113.857L474.489 103.94L471.513 108.29Z" fill="#FBBEBE"/>
<path d="M776.895 339.672C779.233 340.564 781.735 340.873 784.206 340.577C786.677 340.281 789.049 339.386 791.134 337.964C793.219 336.541 794.961 334.631 796.223 332.381C797.484 330.132 798.23 327.607 798.402 325.003C798.575 322.4 798.168 319.79 797.215 317.38C796.262 314.969 794.789 312.824 792.911 311.113C791.033 309.402 788.802 308.172 786.394 307.52C783.986 306.868 781.466 306.812 779.034 307.356L779.436 316.029L775.525 308.596C771.687 310.489 768.722 313.902 767.282 318.087C766.77 319.553 766.459 321.088 766.358 322.645C766.111 326.299 767.006 329.939 768.908 333.011C770.809 336.084 773.613 338.422 776.895 339.672V339.672Z" fill="#0B41CD"/>
<path d="M796.245 440.261C794.865 432.885 800.846 426.346 806.755 422.096C812.663 417.846 819.567 413.67 821.583 406.457C824.481 396.091 815.85 386.597 809.133 378.411C804.149 372.335 799.87 365.661 796.383 358.529C794.986 355.669 793.702 352.679 793.334 349.488C792.804 344.893 794.211 340.321 795.629 335.938C800.35 321.337 805.399 306.859 810.774 292.502" stroke="#3F3D56" stroke-miterlimit="10"/>
<path d="M777.557 337.439C779.894 338.331 782.397 338.641 784.868 338.344C787.339 338.048 789.71 337.153 791.796 335.731C793.881 334.309 795.623 332.398 796.884 330.149C798.145 327.899 798.891 325.374 799.064 322.77C799.236 320.167 798.83 317.557 797.877 315.147C796.924 312.737 795.45 310.591 793.572 308.88C791.695 307.169 789.464 305.939 787.055 305.287C784.647 304.636 782.128 304.579 779.695 305.123L780.097 313.796L776.187 306.364C772.349 308.256 769.384 311.669 767.943 315.854C767.432 317.32 767.121 318.855 767.019 320.412C766.773 324.067 767.668 327.706 769.569 330.778C771.471 333.851 774.275 336.189 777.557 337.439V337.439Z" stroke="#3F3D56" stroke-miterlimit="10"/>
<path d="M794.282 289.507C795.2 286.852 796.739 284.481 798.759 282.614C800.779 280.746 803.214 279.443 805.841 278.822L807.163 287.067L809.614 278.408C813.018 278.461 816.318 279.648 819.037 281.796C821.756 283.945 823.753 286.945 824.742 290.363C825.73 293.781 825.657 297.44 824.535 300.812C823.412 304.183 821.297 307.094 818.495 309.122C815.693 311.15 812.349 312.192 808.947 312.096C805.544 312.001 802.258 310.773 799.564 308.59C796.869 306.407 794.906 303.383 793.956 299.953C793.007 296.523 793.121 292.865 794.282 289.507H794.282Z" fill="#0B41CD"/>
<path d="M795.164 286.53C796.081 283.875 797.621 281.504 799.641 279.637C801.661 277.769 804.096 276.466 806.723 275.845L808.045 284.09L810.496 275.431C813.9 275.484 817.199 276.67 819.918 278.819C822.637 280.968 824.635 283.968 825.623 287.386C826.612 290.804 826.539 294.463 825.416 297.834C824.294 301.206 822.179 304.116 819.377 306.145C816.575 308.173 813.231 309.215 809.828 309.119C806.426 309.023 803.14 307.796 800.445 305.613C797.751 303.43 795.787 300.406 794.838 296.976C793.889 293.546 794.003 289.888 795.164 286.53H795.164Z" stroke="#3F3D56" stroke-miterlimit="10"/>
<path d="M806.314 378.578C810.021 379.989 814.093 379.919 817.754 378.382C821.415 376.845 824.409 373.948 826.166 370.244C827.922 366.54 828.318 362.287 827.278 358.296C826.238 354.305 823.835 350.855 820.526 348.604L818.643 355.258L817.307 346.916C817.294 346.91 817.28 346.904 817.266 346.9C815.283 346.144 813.178 345.805 811.071 345.903C808.963 346.001 806.895 346.534 804.983 347.471C803.072 348.408 801.356 349.731 799.932 351.364C798.508 352.997 797.405 354.909 796.686 356.99C795.966 359.07 795.645 361.28 795.739 363.491C795.834 365.702 796.343 367.872 797.237 369.877C798.131 371.882 799.393 373.682 800.95 375.175C802.508 376.668 804.331 377.824 806.314 378.578H806.314Z" fill="#0B41CD"/>
<path d="M807.078 375.562C810.785 376.973 814.857 376.903 818.518 375.366C822.179 373.83 825.173 370.933 826.93 367.229C828.686 363.524 829.082 359.271 828.042 355.28C827.002 351.289 824.599 347.839 821.29 345.588L819.407 352.243L818.071 343.901C818.058 343.894 818.044 343.889 818.03 343.884C816.047 343.128 813.942 342.789 811.835 342.887C809.727 342.985 807.659 343.518 805.748 344.455C803.836 345.392 802.12 346.715 800.696 348.348C799.272 349.982 798.169 351.893 797.45 353.974C796.73 356.055 796.409 358.264 796.503 360.475C796.598 362.687 797.107 364.857 798.001 366.861C798.895 368.866 800.157 370.666 801.715 372.159C803.272 373.652 805.095 374.809 807.078 375.562H807.078Z" stroke="#3F3D56" stroke-miterlimit="10"/>
<path d="M789.596 406.56C790.233 410.365 792.098 413.825 794.878 416.359C797.658 418.893 801.184 420.346 804.864 420.476C808.544 420.607 812.155 419.405 815.091 417.073C818.027 414.741 820.109 411.421 820.989 407.669C821.869 403.918 821.493 399.963 819.924 396.467C818.354 392.972 815.687 390.15 812.37 388.473C809.052 386.796 805.286 386.367 801.703 387.258C798.12 388.149 794.938 390.305 792.69 393.365L799.845 404.665L790.069 398.668C789.311 401.221 789.149 403.927 789.596 406.56V406.56Z" fill="#0B41CD"/>
<path d="M790.257 404.327C790.895 408.132 792.76 411.592 795.539 414.126C798.319 416.66 801.845 418.114 805.525 418.244C809.205 418.374 812.816 417.172 815.752 414.84C818.688 412.508 820.771 409.188 821.651 405.436C822.53 401.685 822.154 397.73 820.585 394.235C819.015 390.739 816.348 387.917 813.031 386.24C809.714 384.563 805.948 384.134 802.365 385.025C798.782 385.916 795.599 388.072 793.352 391.133L800.507 402.432L790.731 396.435C789.973 398.988 789.81 401.695 790.257 404.327V404.327Z" stroke="#3F3D56" stroke-miterlimit="10"/>
<path d="M6.95031 380.719C8.48602 381.304 10.1304 381.508 11.7539 381.313C13.3773 381.118 14.9355 380.531 16.3056 379.596C17.6756 378.662 18.8201 377.406 19.6488 375.929C20.4775 374.451 20.9677 372.791 21.0809 371.081C21.1941 369.371 20.9271 367.656 20.301 366.072C19.6749 364.489 18.7068 363.079 17.473 361.955C16.2392 360.831 14.7734 360.023 13.1912 359.594C11.609 359.166 9.95353 359.129 8.35539 359.487L8.61949 365.185L6.05016 360.301C3.52852 361.545 1.58044 363.787 0.634031 366.537C0.297921 367.5 0.0935911 368.508 0.027137 369.532C-0.13504 371.933 0.45308 374.324 1.70237 376.342C2.95166 378.361 4.79404 379.897 6.95031 380.719V380.719Z" fill="#0B41CD"/>
<path d="M19.6633 446.807C18.7563 441.961 22.6864 437.665 26.5684 434.873C30.4504 432.08 34.9864 429.337 36.3109 424.598C38.2146 417.787 32.5443 411.549 28.1309 406.171C24.8566 402.179 22.0448 397.794 19.7542 393.108C18.7584 391.267 18.0801 389.256 17.7506 387.168C17.4026 384.149 18.327 381.145 19.2582 378.265C22.3605 368.672 25.6774 359.16 29.209 349.727" stroke="#3F3D56" stroke-miterlimit="10"/>
<path d="M7.3852 379.252C8.92091 379.837 10.5653 380.041 12.1888 379.846C13.8122 379.651 15.3704 379.064 16.7404 378.129C18.1105 377.195 19.2549 375.939 20.0836 374.462C20.9123 372.984 21.4026 371.324 21.5158 369.614C21.629 367.904 21.362 366.189 20.7359 364.605C20.1098 363.022 19.1417 361.612 17.9079 360.488C16.6741 359.364 15.2083 358.556 13.6261 358.127C12.0438 357.699 10.3884 357.662 8.79028 358.02L9.05437 363.718L6.48504 358.834C3.9634 360.078 2.01532 362.32 1.06891 365.07C0.732801 366.033 0.528474 367.041 0.462016 368.065C0.299828 370.466 0.887944 372.857 2.13724 374.875C3.38653 376.894 5.22891 378.43 7.3852 379.252V379.252Z" stroke="#3F3D56" stroke-miterlimit="10"/>
<path d="M18.3736 347.76C18.9763 346.015 19.9878 344.457 21.315 343.23C22.6421 342.003 24.2422 341.147 25.9678 340.739L26.8365 346.156L28.4471 340.467C30.6834 340.502 32.8512 341.281 34.6377 342.693C36.4241 344.105 37.7367 346.076 38.386 348.322C39.0353 350.567 38.9876 352.971 38.2499 355.187C37.5122 357.402 36.1226 359.314 34.2818 360.647C32.4409 361.979 30.2441 362.663 28.0084 362.601C25.7727 362.538 23.6139 361.731 21.8436 360.297C20.0733 358.863 18.7832 356.876 18.1595 354.622C17.5358 352.369 17.6108 349.965 18.3736 347.76V347.76Z" fill="#57B894"/>
<path d="M18.953 345.804C19.5557 344.059 20.5672 342.501 21.8943 341.274C23.2215 340.047 24.8216 339.191 26.5471 338.783L27.4159 344.2L29.0265 338.511C31.2627 338.546 33.4305 339.325 35.217 340.737C37.0034 342.149 38.3161 344.12 38.9654 346.366C39.6146 348.611 39.567 351.015 38.8293 353.231C38.0916 355.446 36.702 357.358 34.8611 358.691C33.0203 360.023 30.8234 360.707 28.5877 360.645C26.352 360.582 24.1932 359.775 22.4229 358.341C20.6527 356.907 19.3626 354.92 18.7389 352.666C18.1152 350.413 18.1901 348.009 18.953 345.804V345.804Z" fill="#0B41CD" stroke="#3F3D56" stroke-miterlimit="10"/>
<path d="M26.2788 406.28C28.7143 407.207 31.3897 407.162 33.7951 406.152C36.2005 405.142 38.1676 403.239 39.3216 400.805C40.4756 398.371 40.7357 395.577 40.0524 392.955C39.3691 390.333 37.7901 388.066 35.6164 386.587L34.3788 390.959L33.5013 385.478C33.4926 385.474 33.4836 385.47 33.4744 385.467C32.1717 384.97 30.7884 384.748 29.4036 384.812C28.0187 384.876 26.6595 385.226 25.4036 385.841C24.1477 386.457 23.0198 387.326 22.0842 388.399C21.1486 389.472 20.4237 390.729 19.951 392.096C19.4783 393.463 19.267 394.915 19.3292 396.368C19.3914 397.821 19.7259 399.247 20.3136 400.564C20.9012 401.881 21.7305 403.064 22.7541 404.045C23.7776 405.026 24.9753 405.785 26.2788 406.28V406.28Z" fill="#0B41CD"/>
<path d="M26.7808 404.299C29.2163 405.226 31.8917 405.18 34.2971 404.171C36.7025 403.161 38.6696 401.258 39.8236 398.824C40.9776 396.39 41.2378 393.596 40.5544 390.974C39.8711 388.351 38.2921 386.085 36.1184 384.606L34.8808 388.978L34.0033 383.497C33.9946 383.493 33.9856 383.489 33.9764 383.486C32.674 382.99 31.2912 382.769 29.9071 382.834C28.523 382.899 27.1647 383.249 25.9096 383.865C23.375 385.108 21.4149 387.358 20.4607 390.118C19.5065 392.878 19.6363 395.922 20.8216 398.582C22.0068 401.241 24.1504 403.298 26.7808 404.299V404.299Z" stroke="#3F3D56" stroke-miterlimit="10"/>
<path d="M15.2947 424.665C15.7134 427.165 16.9387 429.439 18.7652 431.103C20.5916 432.768 22.908 433.723 25.3259 433.809C27.7438 433.894 30.1162 433.105 32.0452 431.573C33.9742 430.04 35.3425 427.859 35.9206 425.394C36.4987 422.929 36.2515 420.331 35.2204 418.034C34.1893 415.738 32.437 413.883 30.2574 412.782C28.0778 411.68 25.6035 411.398 23.2494 411.983C20.8953 412.569 18.8045 413.985 17.3278 415.996L22.0286 423.42L15.6056 419.48C15.1075 421.157 15.0009 422.936 15.2947 424.665V424.665Z" fill="#57B894"/>
<path d="M15.7292 423.198C16.1479 425.698 17.3733 427.971 19.1997 429.636C21.0261 431.301 23.3425 432.256 25.7604 432.342C28.1783 432.427 30.5507 431.637 32.4797 430.105C34.4087 428.573 35.777 426.392 36.3551 423.927C36.9332 421.462 36.686 418.864 35.6549 416.567C34.6238 414.271 32.8715 412.416 30.6919 411.314C28.5123 410.213 26.038 409.931 23.6839 410.516C21.3298 411.102 19.239 412.518 17.7623 414.529L22.4632 421.953L16.0401 418.013C15.542 419.69 15.4354 421.469 15.7292 423.198V423.198Z" fill="#0B41CD" stroke="#3F3D56" stroke-miterlimit="10"/>
<path d="M371.098 276.171C378.342 276.171 384.215 268.197 384.215 258.36C384.215 248.523 378.342 240.548 371.098 240.548C363.853 240.548 357.98 248.523 357.98 258.36C357.98 268.197 363.853 276.171 371.098 276.171Z" fill="#2F2E41"/>
<path d="M442.47 276.576C449.715 276.576 455.588 268.601 455.588 258.764C455.588 248.927 449.715 240.953 442.47 240.953C435.226 240.953 429.353 248.927 429.353 258.764C429.353 268.601 435.226 276.576 442.47 276.576Z" fill="#2F2E41"/>
<path d="M432.44 311.389C432.44 319.437 421.73 325.962 408.52 325.962C395.31 325.962 384.601 319.437 384.601 311.389C384.601 304.418 392.633 298.589 403.366 297.164C405.075 296.928 406.797 296.811 408.52 296.816C411.408 296.806 414.288 297.132 417.108 297.788C426.074 299.885 432.44 305.187 432.44 311.389Z" fill="#2F2E41"/>
<path d="M374.184 272.123C381.428 272.123 387.301 264.148 387.301 254.311C387.301 244.474 381.428 236.5 374.184 236.5C366.94 236.5 361.067 244.474 361.067 254.311C361.067 264.148 366.94 272.123 374.184 272.123Z" stroke="#3F3D56" stroke-miterlimit="10"/>
<path d="M445.557 272.528C452.801 272.528 458.674 264.553 458.674 254.716C458.674 244.879 452.801 236.905 445.557 236.905C438.312 236.905 432.44 244.879 432.44 254.716C432.44 264.553 438.312 272.528 445.557 272.528Z" stroke="#3F3D56" stroke-miterlimit="10"/>
<path d="M411.607 321.914C424.817 321.914 435.526 315.389 435.526 307.341C435.526 299.293 424.817 292.768 411.607 292.768C398.396 292.768 387.687 299.293 387.687 307.341C387.687 315.389 398.396 321.914 411.607 321.914Z" stroke="#3F3D56" stroke-miterlimit="10"/>
<path d="M417.393 299.002C417.4 300.02 417.035 301.002 416.375 301.748C416.063 302.105 415.684 302.391 415.262 302.587C414.839 302.784 414.383 302.886 413.921 302.888H406.205C405.255 302.853 404.356 302.425 403.705 301.697C403.054 300.969 402.705 300 402.733 299.002C402.729 298.213 402.949 297.44 403.366 296.783C405.073 296.53 406.796 296.406 408.52 296.411C411.412 296.401 414.294 296.749 417.108 297.448C417.298 297.941 417.395 298.469 417.393 299.002V299.002Z" fill="white"/>
<path d="M374.184 253.502C376.315 253.502 378.042 251.689 378.042 249.454C378.042 247.218 376.315 245.406 374.184 245.406C372.053 245.406 370.326 247.218 370.326 249.454C370.326 251.689 372.053 253.502 374.184 253.502Z" fill="white"/>
<path d="M445.943 253.502C448.073 253.502 449.801 251.689 449.801 249.454C449.801 247.218 448.073 245.406 445.943 245.406C443.812 245.406 442.085 247.218 442.085 249.454C442.085 251.689 443.812 253.502 445.943 253.502Z" fill="white"/>
<path opacity="0.3" d="M449.801 291.554C451.931 291.554 453.659 289.741 453.659 287.506C453.659 285.27 451.931 283.457 449.801 283.457C447.67 283.457 445.943 285.27 445.943 287.506C445.943 289.741 447.67 291.554 449.801 291.554Z" fill="#0B41CD"/>
<path opacity="0.3" d="M355.666 291.554C357.796 291.554 359.524 289.741 359.524 287.506C359.524 285.27 357.796 283.457 355.666 283.457C353.535 283.457 351.808 285.27 351.808 287.506C351.808 289.741 353.535 291.554 355.666 291.554Z" fill="#0B41CD"/>
</g>
<defs>
<clipPath id="clip0">
<rect width="829" height="473" fill="white"/>
</clipPath>
</defs>
</svg>
