<svg width="45" height="42" viewBox="0 0 45 42" fill="none" xmlns="http://www.w3.org/2000/svg">
<path d="M38.8744 35.4253L35.8338 30.4168C34.4296 28.1051 33.6875 25.4573 33.6875 22.7623V18.375C33.6875 12.8363 29.9475 8.15153 24.8332 6.64125V3.50003C24.8332 1.56975 23.2447 0 21.2914 0C19.3381 0 17.7496 1.56975 17.7496 3.50003V6.64125C12.6354 8.15153 8.89534 12.8363 8.89534 18.375V22.7623C8.89534 25.4573 8.15331 28.1032 6.75078 30.4151L3.71023 35.4236C3.54554 35.6948 3.54197 36.0308 3.6996 36.3056C3.85724 36.5803 4.14943 36.7501 4.46819 36.7501H38.1147C38.4334 36.7501 38.7274 36.5804 38.885 36.3074C39.0427 36.0343 39.0373 35.6948 38.8744 35.4253Z" fill="#0B41CD"/>
<path d="M15.8574 38.5C16.8679 40.5615 19.0072 42 21.4993 42C23.9915 42 26.1308 40.5615 27.1413 38.5H15.8574Z" fill="#0004AF"/>
<circle cx="33.5" cy="17.5" r="11" fill="#E84343" stroke="white"/>
<path d="M32.0572 22.648C31.6625 22.648 31.3799 22.5413 31.2092 22.328C31.0385 22.1253 30.9425 21.7733 30.9212 21.272L31.0492 21.128C31.4972 21.2453 31.9399 21.304 32.3772 21.304C32.8679 21.304 33.3105 21.2187 33.7052 21.048C34.0999 20.888 34.4092 20.6693 34.6332 20.392C34.8679 20.104 34.9852 19.784 34.9852 19.432C34.9852 18.9307 34.7719 18.5627 34.3452 18.328C33.9185 18.0933 33.2519 17.9707 32.3452 17.96L32.2332 17.848L32.1372 17.096L33.1772 16.856C33.5825 16.6747 33.9079 16.424 34.1532 16.104C34.3985 15.784 34.5212 15.4587 34.5212 15.128C34.5212 14.8293 34.4145 14.5893 34.2012 14.408C33.9879 14.216 33.7159 14.12 33.3852 14.12C33.0972 14.12 32.7879 14.1947 32.4572 14.344C32.1372 14.4827 31.8492 14.6747 31.5932 14.92L31.4172 14.936L31.1932 14.056C31.4279 13.864 31.8279 13.624 32.3932 13.336C32.9585 13.0373 33.4865 12.888 33.9772 12.888C34.6385 12.888 35.1665 13.0533 35.5612 13.384C35.9665 13.7147 36.1692 14.1573 36.1692 14.712C36.1692 15.1387 36.0092 15.5547 35.6892 15.96C35.3692 16.3653 34.9425 16.696 34.4092 16.952V17.048C35.1345 17.2187 35.6785 17.48 36.0412 17.832C36.4145 18.1733 36.6012 18.5893 36.6012 19.08C36.6012 19.6347 36.3719 20.1893 35.9132 20.744C35.4652 21.2987 34.8839 21.752 34.1692 22.104C33.4652 22.4667 32.7612 22.648 32.0572 22.648Z" fill="white"/>
</svg>
