<svg width="100%" height="100%" viewBox="0 0 41 30" fill="none" xmlns="http://www.w3.org/2000/svg">
<path d="M1.53688 27.584L1.21288 25.856C2.72488 24.344 3.94888 22.616 4.88488 20.672C5.82088 18.728 6.28888 16.964 6.28888 15.38C6.28888 13.652 5.78488 12.032 4.77688 10.52C3.84088 9.008 2.54488 7.856 0.888875 7.064L0.780875 5.552C3.80488 1.952 6.86488 0.151998 9.96088 0.151998C12.1209 0.151998 13.9209 1.16 15.3609 3.176C16.8729 5.12 17.6289 7.568 17.6289 10.52C17.6289 13.4 16.5849 16.568 14.4969 20.024C12.4809 23.48 9.63688 26.756 5.96488 29.852L1.53688 27.584ZM24.74 27.584L24.416 25.856C25.928 24.344 27.152 22.616 28.088 20.672C29.024 18.728 29.492 16.964 29.492 15.38C29.492 13.652 28.988 12.032 27.98 10.52C27.044 9.008 25.748 7.856 24.092 7.064L23.984 5.552C27.008 1.952 30.068 0.151998 33.164 0.151998C35.324 0.151998 37.124 1.16 38.564 3.176C40.076 5.12 40.832 7.568 40.832 10.52C40.832 13.4 39.788 16.568 37.7 20.024C35.684 23.48 32.84 26.756 29.168 29.852L24.74 27.584Z" fill="black" fill-opacity="0.4"/>
</svg>
