<svg width="60" height="60" viewBox="0 0 60 60" fill="none" xmlns="http://www.w3.org/2000/svg">
<g clip-path="url(#clip0)">
<path d="M59 7H1C0.447754 7 0 7.44775 0 8V52C0 52.5522 0.447754 53 1 53H59C59.5522 53 60 52.5522 60 52V8C60 7.44775 59.5522 7 59 7ZM48 9C50.2091 9 52 10.7909 52 13V21.9681C52 23.677 49.846 24.4292 48.7822 23.0918C48.5923 22.854 48.3042 22.7153 48 22.7153C47.6958 22.7153 47.4077 22.854 47.2178 23.0918C46.154 24.4292 44 23.677 44 21.9681V13C44 10.7909 45.7909 9 48 9ZM58 47C58 49.2091 56.2091 51 54 51H6C3.79086 51 2 49.2091 2 47V13C2 10.7909 3.79086 9 6 9H38C40.2091 9 42 10.7909 42 13V30C42.0005 30.4248 42.2695 30.8027 42.6704 30.9429C43.0713 31.083 43.5171 30.9541 43.7822 30.6221L44.8702 29.2544C46.4714 27.2414 49.5289 27.2411 51.1305 29.2538L52.2178 30.6201C52.4072 30.8594 52.6948 30.999 53 31C53.1123 30.9995 53.2236 30.9805 53.3301 30.9438C53.7314 30.8037 54 30.4253 54 30V11C54 9.89543 54.8954 9 56 9C57.1046 9 58 9.89543 58 11V47Z" fill="#0B41CD"/>
<path d="M6.99976 33H32.9998C33.552 33 33.9998 32.5523 33.9998 32V14C33.9998 13.4478 33.552 13 32.9998 13H6.99976C6.44751 13 5.99976 13.4478 5.99976 14V32C5.99976 32.5523 6.44751 33 6.99976 33ZM7.99976 19C7.99976 16.7909 9.79062 15 11.9998 15H27.9998C30.2089 15 31.9998 16.7909 31.9998 19V27C31.9998 29.2091 30.2089 31 27.9998 31H11.9998C9.79062 31 7.99976 29.2091 7.99976 27V19Z" fill="#0B41CD"/>
<path d="M52.9998 37H6.99976C6.44751 37 5.99976 37.4478 5.99976 38C5.99976 38.5522 6.44751 39 6.99976 39H52.9998C53.552 39 53.9998 38.5522 53.9998 38C53.9998 37.4478 53.552 37 52.9998 37Z" fill="#0B41CD"/>
<path d="M52.9998 43H6.99976C6.44751 43 5.99976 43.4478 5.99976 44C5.99976 44.5522 6.44751 45 6.99976 45H52.9998C53.552 45 53.9998 44.5522 53.9998 44C53.9998 43.4478 53.552 43 52.9998 43Z" fill="#0B41CD"/>
</g>
<defs>
<clipPath id="clip0">
<rect width="60" height="60" fill="white"/>
</clipPath>
</defs>
</svg>
