<svg width="60" height="60" viewBox="0 0 60 60" fill="none" xmlns="http://www.w3.org/2000/svg">
<g clip-path="url(#clip0)">
<path d="M57.2341 57.6563C55.8146 57.6563 54.6639 56.5055 54.6639 55.086V20.3363C54.6639 18.5992 53.2506 17.186 51.5136 17.186H45.7686C44.0316 17.186 42.6184 18.5993 42.6184 20.3363V54.3931C42.6184 56.1953 41.1574 57.6563 39.3552 57.6563C37.553 57.6563 36.092 56.1953 36.092 54.3931V37.2451C36.092 35.5081 34.6788 34.0949 32.9418 34.0949H27.1968C25.4597 34.0949 24.0465 35.5082 24.0465 37.2451V54.3931C24.0465 56.1953 22.5855 57.6563 20.7833 57.6563C18.9811 57.6563 17.5201 56.1953 17.5201 54.3931V47.0855C17.5201 45.3484 16.1068 43.9353 14.3699 43.9353H8.62477C6.8877 43.9353 5.47453 45.3485 5.47453 47.0855V54.9474C5.47453 56.4435 4.26171 57.6563 2.76562 57.6563C2.1184 57.6563 1.59375 58.1809 1.59375 58.8282C1.59375 59.4754 2.1184 60 2.76562 60H57.2341C57.8814 60 58.406 59.4754 58.406 58.8282C58.406 58.1809 57.8814 57.6563 57.2341 57.6563ZM15.1761 53.9773C15.1761 56.0091 13.529 57.6563 11.4971 57.6563C9.4653 57.6563 7.81816 56.0091 7.81816 53.9773V47.0855C7.81816 46.6408 8.17992 46.279 8.62465 46.279H14.3696C14.8144 46.279 15.1761 46.6408 15.1761 47.0855V53.9773ZM33.7481 53.9773C33.7481 56.0091 32.101 57.6563 30.0691 57.6563C28.0373 57.6563 26.3902 56.0091 26.3902 53.9773V37.2451C26.3902 36.8004 26.7519 36.4387 27.1966 36.4387H32.9416C33.3862 36.4387 33.7481 36.8004 33.7481 37.2451V53.9773ZM52.3201 53.9773C52.3201 56.0092 50.673 57.6563 48.6411 57.6563C46.6093 57.6563 44.9621 56.0091 44.9621 53.9773V20.3363C44.9621 19.8915 45.3239 19.5298 45.7686 19.5298H51.5136C51.9584 19.5298 52.3201 19.8915 52.3201 20.3363V53.9773Z" fill="#0B41CD"/>
<path d="M54.6611 1.23234C54.6775 0.912539 54.565 0.587344 54.3208 0.343125C54.0766 0.0989062 53.7514 -0.0137109 53.4316 0.0028125C53.4127 0.00199219 53.3941 0 53.3749 0H46.285C45.6378 0 45.1132 0.524648 45.1132 1.17188C45.1132 1.8191 45.6378 2.34375 46.285 2.34375C47.9005 2.34375 48.7096 4.29697 47.5673 5.43932L41.9064 11.1002C40.3443 12.6623 37.8117 12.6623 36.2496 11.1002L34.7092 9.55992C34.4895 9.3402 34.1914 9.21668 33.8806 9.21668C33.5698 9.21668 33.2717 9.3402 33.052 9.55992L11.9853 30.6267C11.5277 31.0843 11.5277 31.8264 11.9853 32.2841C12.2142 32.5127 12.5141 32.6271 12.8139 32.6271C13.1138 32.6271 13.4138 32.5127 13.6426 32.2839L31.0522 14.8741C32.6143 13.312 35.1469 13.312 36.709 14.8741L38.2494 16.4145C38.707 16.8721 39.449 16.8721 39.9067 16.4145L49.5185 6.80275C50.5524 5.76888 52.3202 6.50112 52.3202 7.96324C52.3202 8.61047 52.8448 9.13512 53.4921 9.13512C54.1393 9.13512 54.6639 8.61047 54.6639 7.96324V1.28906C54.6639 1.26996 54.6619 1.25133 54.6611 1.23234Z" fill="#0B41CD"/>
<path d="M8.86401 36.7161C9.51122 36.7161 10.0359 36.1914 10.0359 35.5442C10.0359 34.897 9.51122 34.3723 8.86401 34.3723C8.2168 34.3723 7.69214 34.897 7.69214 35.5442C7.69214 36.1914 8.2168 36.7161 8.86401 36.7161Z" fill="#0B41CD"/>
</g>
<defs>
<clipPath id="clip0">
<rect width="60" height="60" fill="white"/>
</clipPath>
</defs>
</svg>
