<svg width="60" height="60" viewBox="0 0 60 60" fill="none" xmlns="http://www.w3.org/2000/svg">
<g style="mix-blend-mode:darken">
<g style="mix-blend-mode:darken">
<path d="M60 30C60 13.4585 46.5415 0 30 0C13.4585 0 0 13.4585 0 30C0 38.7304 3.75137 46.6004 9.7238 52.0871C9.7311 52.0938 9.73099 52.1053 9.72357 52.1119C9.71594 52.1187 9.71608 52.1306 9.72387 52.1372L10.6822 52.9451C10.7455 52.9985 10.8142 53.0422 10.8775 53.0945C11.3945 53.5233 11.9302 53.9302 12.4756 54.324C12.6524 54.4516 12.8291 54.5793 13.0091 54.7036C13.5916 55.1051 14.1895 55.4858 14.8004 55.8469C14.9335 55.9254 15.0676 56.0018 15.2018 56.0782C15.8705 56.4589 16.5535 56.8178 17.2527 57.1473C17.304 57.1713 17.3564 57.1931 17.4076 57.2171C19.6865 58.2764 22.1193 59.0542 24.6633 59.5135C24.7298 59.5255 24.7964 59.5375 24.864 59.5494C25.6538 59.6858 26.4524 59.7949 27.2607 59.868C27.3589 59.8767 27.4571 59.8822 27.5564 59.8909C28.3615 59.9575 29.1753 60 30 60C30.8171 60 31.6233 59.9575 32.424 59.8931C32.5255 59.8844 32.6269 59.8789 32.7284 59.8702C33.5302 59.7971 34.3222 59.6913 35.1044 59.5571C35.172 59.5451 35.2407 59.5331 35.3084 59.52C37.8142 59.0705 40.212 58.3102 42.4615 57.2782C42.5444 57.24 42.6284 57.204 42.7113 57.1647C43.3844 56.8484 44.0422 56.5069 44.6869 56.1436C44.8473 56.0531 45.0065 55.9615 45.1658 55.8676C45.7527 55.5218 46.3298 55.1607 46.8905 54.7767C47.0924 54.6393 47.2898 54.4942 47.4895 54.3502C47.9684 54.0055 48.4385 53.6498 48.8956 53.2778C48.9971 53.196 49.1062 53.1251 49.2055 53.0411L50.1885 52.2203C50.1964 52.2137 50.1965 52.2015 50.1886 52.1948C50.1809 52.1883 50.1808 52.1766 50.1882 52.1698C56.2128 46.6808 60 38.775 60 30ZM2.18182 30C2.18182 14.6607 14.6607 2.18182 30 2.18182C45.3393 2.18182 57.8182 14.6607 57.8182 30C57.8182 37.8576 54.5404 44.961 49.2836 50.0236C48.8025 50.4869 48.0712 50.5097 47.4742 50.2102L38.2374 45.5924C37.4084 45.1778 36.8935 44.3444 36.8935 43.4182V41.3094C36.8935 40.5867 37.1478 39.8901 37.5665 39.3011C38.4478 38.0564 39.2004 36.7087 39.8153 35.2766C40.2386 34.2906 41.0459 33.5167 41.7443 32.7021C42.3451 32.0013 42.6949 31.0977 42.6949 30.1244V26.2571C42.6949 25.8087 42.617 25.3667 42.4688 24.949C42.1487 24.0463 41.7273 23.146 41.7273 22.1882V18.5815C41.784 18.0153 41.9847 14.82 39.6731 12.1844C37.6625 9.88909 34.4084 8.72727 30 8.72727C25.5916 8.72727 22.3375 9.88909 20.3269 12.1833C18.0153 14.8189 18.216 18.0142 18.2727 18.5804V22.1891C18.2727 23.1457 17.8525 24.045 17.5321 24.9463C17.3835 25.3645 17.3051 25.8071 17.3051 26.256V30.1233C17.3051 30.8769 17.5173 31.5988 17.9034 32.2188C18.3544 32.9431 18.8677 33.6512 19.1389 34.4601C19.791 36.4052 20.6866 38.0062 21.3739 39.0697C21.8469 39.8016 22.1411 40.6421 22.1411 41.5135V43.3276C22.1411 44.2178 21.6556 45.036 20.8735 45.4636L12.2476 50.1687C11.7491 50.4398 11.1247 50.4199 10.716 50.0262C5.45848 44.9624 2.18182 37.8573 2.18182 30ZM46.3189 52.5076C45.9371 52.7847 45.5487 53.0531 45.1549 53.3095C44.9738 53.4273 44.7938 53.5451 44.6094 53.6596C44.0945 53.9782 43.5709 54.2815 43.0364 54.5651C42.9185 54.6273 42.7996 54.6862 42.6807 54.7473C41.4524 55.3767 40.1815 55.9178 38.8756 56.3574C38.8298 56.3727 38.784 56.3891 38.7371 56.4044C38.0541 56.6309 37.3625 56.8325 36.6632 57.0057C36.6611 57.0063 36.6589 57.0065 36.6567 57.0071C36.6546 57.0076 36.6524 57.0079 36.6502 57.0084C35.9444 57.1826 35.2298 57.3274 34.5109 57.4462C34.4913 57.4495 34.4716 57.4538 34.452 57.4571C33.7745 57.5673 33.0916 57.6469 32.4065 57.7069C32.2854 57.7178 32.1644 57.7254 32.0422 57.7342C31.3647 57.7854 30.684 57.8182 30 57.8182C29.3084 57.8182 28.6189 57.7844 27.9327 57.7331C27.8138 57.7244 27.6949 57.7167 27.5771 57.7058C26.8855 57.6447 26.1971 57.5629 25.5153 57.4516C25.4847 57.4462 25.4542 57.4407 25.4236 57.4353C23.9815 57.1942 22.5622 56.8396 21.18 56.376C21.1375 56.3618 21.0938 56.3465 21.0513 56.3324C20.3651 56.0989 19.6865 55.8404 19.02 55.5545C19.0156 55.5524 19.0102 55.5502 19.0058 55.548C18.3753 55.2764 17.7567 54.9753 17.1458 54.6578C17.0662 54.6164 16.9855 54.5771 16.9069 54.5345C16.3495 54.2367 15.804 53.9149 15.2662 53.5789C15.1069 53.4785 14.9487 53.3771 14.7916 53.2745C14.2964 52.9505 13.8076 52.6134 13.332 52.2567C13.3149 52.2438 13.2981 52.2307 13.2814 52.2174C13.237 52.1823 13.2422 52.1122 13.2916 52.0844L21.9175 47.3793C23.4011 46.5698 24.3229 45.0174 24.3229 43.3276L24.3219 39.7918C24.3219 39.5374 24.2331 39.2909 24.0709 39.0949C24.0469 39.0676 21.6884 36.1985 20.7971 32.3138C20.7334 32.0368 20.5644 31.7953 20.3258 31.6407C19.8011 31.3015 19.4869 30.7342 19.4869 30.1222V26.2549C19.4869 25.7476 19.7018 25.2753 20.0945 24.9207C20.3237 24.7138 20.4545 24.4194 20.4545 24.1106V18.5193L20.4447 18.3764C20.4415 18.3502 20.1196 15.7265 21.9676 13.62C23.5451 11.8222 26.2484 10.9091 30 10.9091C33.7375 10.9091 36.432 11.8145 38.0138 13.5993C39.8596 15.684 39.5574 18.3567 39.5553 18.3785L39.5462 24.1128C39.5457 24.4215 39.6763 24.716 39.9055 24.9229C40.2971 25.2764 40.5131 25.7498 40.5131 26.2571V30.1244C40.5131 30.9022 39.984 31.608 39.2247 31.8425C38.8849 31.9472 38.6174 32.2111 38.508 32.5495C37.8644 34.5491 36.948 36.396 35.7851 38.0389C35.4993 38.4425 35.2211 38.8004 34.9822 39.0742C34.8078 39.2732 34.7116 39.5288 34.7116 39.7934V43.4182C34.7116 45.1767 35.6891 46.7585 37.2622 47.544L46.4989 52.1618C46.5808 52.2028 46.5893 52.3152 46.5147 52.3684C46.4494 52.4149 46.3838 52.4608 46.3189 52.5076Z" fill="#0B41CD"/>
</g>
</g>
</svg>
