<svg width="246" height="20" viewBox="0 0 246 20" fill="none" xmlns="http://www.w3.org/2000/svg">
<path d="M130.071 2.92891C128.182 1.0402 125.671 0 123 0C120.329 0 117.818 1.0402 115.929 2.92891C114.04 4.81766 113 7.32891 113 10C113 12.6711 114.04 15.1823 115.929 17.0711C117.818 18.9598 120.329 20 123 20C125.671 20 128.182 18.9598 130.071 17.0711C131.96 15.1823 133 12.6711 133 10C133 7.32891 131.96 4.8177 130.071 2.92891ZM127.778 7.62004L122.189 13.2086C122.075 13.323 121.925 13.3802 121.775 13.3802C121.625 13.3802 121.475 13.323 121.36 13.2086L118.222 10.0705C117.994 9.84176 117.994 9.47078 118.222 9.24191C118.451 9.01309 118.822 9.01309 119.051 9.24191C120.555 10.7462 122.994 10.7462 124.499 9.24187L126.949 6.79141C127.178 6.56258 127.549 6.56258 127.778 6.79141C128.006 7.02023 128.006 7.39121 127.778 7.62004Z" fill="#0B41CD"/>
<path d="M17.0711 2.92891C15.1823 1.0402 12.6711 0 10 0C7.32887 0 4.81766 1.0402 2.92891 2.92891C1.0402 4.81766 0 7.32891 0 10C0 12.6711 1.0402 15.1823 2.92891 17.0711C4.81766 18.9598 7.32891 20 10 20C12.6711 20 15.1823 18.9598 17.0711 17.0711C18.9598 15.1823 20 12.6711 20 10C20 7.32891 18.9598 4.8177 17.0711 2.92891ZM14.7776 7.62004L9.1891 13.2086C9.07469 13.323 8.92473 13.3802 8.7748 13.3802C8.62484 13.3802 8.47488 13.323 8.36047 13.2086L5.22242 10.0705C4.99359 9.84176 4.99359 9.47078 5.22242 9.24191C5.45121 9.01309 5.82223 9.01309 6.05105 9.24191C7.55534 10.7462 9.99425 10.7462 11.4985 9.24187L13.9489 6.79141C14.1777 6.56258 14.5487 6.56258 14.7776 6.79141C15.0064 7.02023 15.0064 7.39121 14.7776 7.62004Z" fill="#0B41CD"/>
<line x1="22" y1="9.5" x2="112" y2="9.5" stroke="#0B41CD"/>
<line x1="135" y1="9.5" x2="225" y2="9.5" stroke="#0B41CD"/>
<circle cx="236" cy="10" r="9.5" fill="white" stroke="#0B41CD"/>
</svg>
